<svg width="1366" height="625" viewBox="0 0 1366 625" fill="none" xmlns="http://www.w3.org/2000/svg">
<path d="M0 0C0 0 416.142 16.8919 683 16.8919C949.858 16.8919 1366 0 1366 0V625C1366 625 949.858 608.108 683 608.108C416.142 608.108 0 625 0 625L0 0Z" fill="#29AAF3"/>
<ellipse cx="70.2345" cy="560.41" rx="2.0439" ry="1.96122" transform="rotate(-90 70.2345 560.41)" fill="#70C217"/>
<ellipse cx="70.2345" cy="530.433" rx="2.0439" ry="1.96122" transform="rotate(-90 70.2345 530.433)" fill="#70C217"/>
<ellipse cx="70.2345" cy="500.456" rx="2.0439" ry="1.96122" transform="rotate(-90 70.2345 500.456)" fill="#70C217"/>
<ellipse cx="70.2346" cy="470.478" rx="2.0439" ry="1.96122" transform="rotate(-90 70.2346 470.478)" fill="#70C217"/>
<ellipse cx="70.2345" cy="440.501" rx="2.0439" ry="1.96122" transform="rotate(-90 70.2345 440.501)" fill="#70C217"/>
<ellipse cx="98.9991" cy="560.41" rx="2.0439" ry="1.96122" transform="rotate(-90 98.9991 560.41)" fill="#70C217"/>
<ellipse cx="98.9991" cy="530.433" rx="2.0439" ry="1.96122" transform="rotate(-90 98.9991 530.433)" fill="#70C217"/>
<ellipse cx="98.9991" cy="500.456" rx="2.0439" ry="1.96122" transform="rotate(-90 98.9991 500.456)" fill="#70C217"/>
<ellipse cx="98.9991" cy="470.478" rx="2.0439" ry="1.96122" transform="rotate(-90 98.9991 470.478)" fill="#70C217"/>
<ellipse cx="98.9991" cy="440.501" rx="2.0439" ry="1.96122" transform="rotate(-90 98.9991 440.501)" fill="#70C217"/>
<ellipse cx="127.764" cy="560.41" rx="2.0439" ry="1.96122" transform="rotate(-90 127.764 560.41)" fill="#70C217"/>
<ellipse cx="127.764" cy="530.433" rx="2.0439" ry="1.96122" transform="rotate(-90 127.764 530.433)" fill="#70C217"/>
<ellipse cx="127.764" cy="500.456" rx="2.0439" ry="1.96122" transform="rotate(-90 127.764 500.456)" fill="#70C217"/>
<ellipse cx="127.764" cy="470.478" rx="2.0439" ry="1.96122" transform="rotate(-90 127.764 470.478)" fill="#70C217"/>
<ellipse cx="127.764" cy="440.501" rx="2.0439" ry="1.96122" transform="rotate(-90 127.764 440.501)" fill="#70C217"/>
<ellipse cx="156.528" cy="560.41" rx="2.0439" ry="1.96122" transform="rotate(-90 156.528 560.41)" fill="#70C217"/>
<ellipse cx="156.528" cy="530.433" rx="2.0439" ry="1.96122" transform="rotate(-90 156.528 530.433)" fill="#70C217"/>
<ellipse cx="156.528" cy="500.456" rx="2.0439" ry="1.96122" transform="rotate(-90 156.528 500.456)" fill="#70C217"/>
<ellipse cx="156.528" cy="470.478" rx="2.0439" ry="1.96122" transform="rotate(-90 156.528 470.478)" fill="#70C217"/>
<ellipse cx="156.528" cy="440.501" rx="2.0439" ry="1.96122" transform="rotate(-90 156.528 440.501)" fill="#70C217"/>
<ellipse cx="185.293" cy="560.41" rx="2.0439" ry="1.96122" transform="rotate(-90 185.293 560.41)" fill="#70C217"/>
<ellipse cx="185.293" cy="530.433" rx="2.0439" ry="1.96122" transform="rotate(-90 185.293 530.433)" fill="#70C217"/>
<ellipse cx="185.293" cy="500.456" rx="2.0439" ry="1.96122" transform="rotate(-90 185.293 500.456)" fill="#70C217"/>
<ellipse cx="185.293" cy="470.478" rx="2.0439" ry="1.96122" transform="rotate(-90 185.293 470.478)" fill="#70C217"/>
<ellipse cx="185.293" cy="440.501" rx="2.0439" ry="1.96122" transform="rotate(-90 185.293 440.501)" fill="#70C217"/>
<ellipse cx="214.057" cy="560.41" rx="2.0439" ry="1.96122" transform="rotate(-90 214.057 560.41)" fill="#70C217"/>
<ellipse cx="214.057" cy="530.433" rx="2.0439" ry="1.96122" transform="rotate(-90 214.057 530.433)" fill="#70C217"/>
<ellipse cx="214.057" cy="500.456" rx="2.0439" ry="1.96122" transform="rotate(-90 214.057 500.456)" fill="#70C217"/>
<ellipse cx="214.057" cy="470.478" rx="2.0439" ry="1.96122" transform="rotate(-90 214.057 470.478)" fill="#70C217"/>
<ellipse cx="214.057" cy="440.501" rx="2.0439" ry="1.96122" transform="rotate(-90 214.057 440.501)" fill="#70C217"/>
<ellipse cx="242.822" cy="560.41" rx="2.0439" ry="1.96122" transform="rotate(-90 242.822 560.41)" fill="#70C217"/>
<ellipse cx="242.822" cy="530.433" rx="2.0439" ry="1.96122" transform="rotate(-90 242.822 530.433)" fill="#70C217"/>
<ellipse cx="242.822" cy="500.456" rx="2.0439" ry="1.96122" transform="rotate(-90 242.822 500.456)" fill="#70C217"/>
<ellipse cx="242.822" cy="470.478" rx="2.0439" ry="1.96122" transform="rotate(-90 242.822 470.478)" fill="#70C217"/>
<ellipse cx="242.822" cy="440.501" rx="2.0439" ry="1.96122" transform="rotate(-90 242.822 440.501)" fill="#70C217"/>
<ellipse cx="271.586" cy="560.41" rx="2.0439" ry="1.96122" transform="rotate(-90 271.586 560.41)" fill="#70C217"/>
<ellipse cx="271.586" cy="530.433" rx="2.0439" ry="1.96122" transform="rotate(-90 271.586 530.433)" fill="#70C217"/>
<ellipse cx="271.586" cy="500.456" rx="2.0439" ry="1.96122" transform="rotate(-90 271.586 500.456)" fill="#70C217"/>
<ellipse cx="271.586" cy="470.478" rx="2.0439" ry="1.96122" transform="rotate(-90 271.586 470.478)" fill="#70C217"/>
<ellipse cx="271.586" cy="440.501" rx="2.0439" ry="1.96122" transform="rotate(-90 271.586 440.501)" fill="#70C217"/>
<ellipse cx="300.351" cy="560.41" rx="2.0439" ry="1.96122" transform="rotate(-90 300.351 560.41)" fill="#70C217"/>
<ellipse cx="300.351" cy="530.433" rx="2.0439" ry="1.96122" transform="rotate(-90 300.351 530.433)" fill="#70C217"/>
<ellipse cx="300.351" cy="500.456" rx="2.0439" ry="1.96122" transform="rotate(-90 300.351 500.456)" fill="#70C217"/>
<ellipse cx="300.351" cy="470.478" rx="2.0439" ry="1.96122" transform="rotate(-90 300.351 470.478)" fill="#70C217"/>
<ellipse cx="300.351" cy="440.501" rx="2.0439" ry="1.96122" transform="rotate(-90 300.351 440.501)" fill="#70C217"/>
<ellipse cx="329.116" cy="560.41" rx="2.0439" ry="1.96122" transform="rotate(-90 329.116 560.41)" fill="#70C217"/>
<ellipse cx="329.115" cy="530.433" rx="2.0439" ry="1.96122" transform="rotate(-90 329.115 530.433)" fill="#70C217"/>
<ellipse cx="329.115" cy="500.456" rx="2.0439" ry="1.96122" transform="rotate(-90 329.115 500.456)" fill="#70C217"/>
<ellipse cx="329.115" cy="470.478" rx="2.0439" ry="1.96122" transform="rotate(-90 329.115 470.478)" fill="#70C217"/>
<ellipse cx="329.115" cy="440.501" rx="2.0439" ry="1.96122" transform="rotate(-90 329.115 440.501)" fill="#70C217"/>
<path d="M212.436 413.192C213.976 447.676 187.243 475.63 152.725 475.63C118.207 475.63 88.9762 447.676 87.4359 413.192C85.8956 378.709 112.629 350.755 147.147 350.755C181.665 350.755 210.896 378.709 212.436 413.192Z" stroke="#FFBA49" stroke-width="5"/>
<path d="M309.33 373.451C309.675 381.175 303.686 387.437 295.954 387.437C288.222 387.437 281.675 381.175 281.33 373.451C280.985 365.726 286.973 359.464 294.705 359.464C302.437 359.464 308.985 365.726 309.33 373.451Z" stroke="#FFBA49" stroke-width="5"/>
</svg>
