<svg width="1366" height="702" viewBox="0 0 1366 702" fill="none" xmlns="http://www.w3.org/2000/svg">
<circle cx="211.329" cy="180.526" r="2.84299" transform="rotate(90 211.329 180.526)" fill="#70C217"/>
<circle cx="211.329" cy="222.223" r="2.84299" transform="rotate(90 211.329 222.223)" fill="#70C217"/>
<circle cx="211.329" cy="263.92" r="2.84299" transform="rotate(90 211.329 263.92)" fill="#70C217"/>
<circle cx="211.329" cy="305.617" r="2.84299" transform="rotate(90 211.329 305.617)" fill="#70C217"/>
<circle cx="169.632" cy="180.526" r="2.84299" transform="rotate(90 169.632 180.526)" fill="#70C217"/>
<circle cx="169.632" cy="222.223" r="2.84299" transform="rotate(90 169.632 222.223)" fill="#70C217"/>
<circle cx="169.632" cy="263.92" r="2.84299" transform="rotate(90 169.632 263.92)" fill="#70C217"/>
<circle cx="169.632" cy="305.617" r="2.84299" transform="rotate(90 169.632 305.617)" fill="#70C217"/>
<circle cx="127.935" cy="180.526" r="2.84299" transform="rotate(90 127.935 180.526)" fill="#70C217"/>
<circle cx="127.935" cy="222.223" r="2.84299" transform="rotate(90 127.935 222.223)" fill="#70C217"/>
<circle cx="127.935" cy="263.92" r="2.84299" transform="rotate(90 127.935 263.92)" fill="#70C217"/>
<circle cx="127.935" cy="305.617" r="2.84299" transform="rotate(90 127.935 305.617)" fill="#70C217"/>
<circle cx="86.2374" cy="180.526" r="2.84299" transform="rotate(90 86.2374 180.526)" fill="#70C217"/>
<circle cx="86.2374" cy="222.223" r="2.84299" transform="rotate(90 86.2374 222.223)" fill="#70C217"/>
<circle cx="86.2374" cy="263.92" r="2.84299" transform="rotate(90 86.2374 263.92)" fill="#70C217"/>
<circle cx="86.2374" cy="305.617" r="2.84299" transform="rotate(90 86.2374 305.617)" fill="#70C217"/>
<circle cx="44.5402" cy="180.526" r="2.84299" transform="rotate(90 44.5402 180.526)" fill="#70C217"/>
<circle cx="44.5402" cy="222.223" r="2.84299" transform="rotate(90 44.5402 222.223)" fill="#70C217"/>
<circle cx="44.5402" cy="263.92" r="2.84299" transform="rotate(90 44.5402 263.92)" fill="#70C217"/>
<circle cx="44.5402" cy="305.617" r="2.84299" transform="rotate(90 44.5402 305.617)" fill="#70C217"/>
<circle cx="2.84304" cy="180.526" r="2.84299" transform="rotate(90 2.84304 180.526)" fill="#70C217"/>
<circle cx="2.84298" cy="222.223" r="2.84299" transform="rotate(90 2.84298 222.223)" fill="#70C217"/>
<circle cx="2.84298" cy="263.92" r="2.84299" transform="rotate(90 2.84298 263.92)" fill="#70C217"/>
<circle cx="2.84298" cy="305.617" r="2.84299" transform="rotate(90 2.84298 305.617)" fill="#70C217"/>
<circle cx="44.27" cy="58.9695" r="22.1804" transform="rotate(16.0891 44.27 58.9695)" stroke="#FFBA49" stroke-width="5"/>
<circle cx="1252.63" cy="18.3304" r="14.8472" stroke="#FFBA49" stroke-width="5"/>
<circle cx="1363.12" cy="92.7394" r="2.84299" transform="rotate(90 1363.12 92.7394)" fill="#EF4358"/>
<circle cx="1363.12" cy="134.436" r="2.84299" transform="rotate(90 1363.12 134.436)" fill="#EF4358"/>
<circle cx="1363.12" cy="176.133" r="2.84299" transform="rotate(90 1363.12 176.133)" fill="#EF4358"/>
<circle cx="1363.12" cy="217.831" r="2.84299" transform="rotate(90 1363.12 217.831)" fill="#EF4358"/>
<circle cx="1363.12" cy="259.528" r="2.84299" transform="rotate(90 1363.12 259.528)" fill="#EF4358"/>
<circle cx="1321.42" cy="92.739" r="2.84299" transform="rotate(90 1321.42 92.739)" fill="#EF4358"/>
<circle cx="1321.42" cy="134.436" r="2.84299" transform="rotate(90 1321.42 134.436)" fill="#EF4358"/>
<circle cx="1321.42" cy="176.133" r="2.84299" transform="rotate(90 1321.42 176.133)" fill="#EF4358"/>
<circle cx="1321.42" cy="217.831" r="2.84299" transform="rotate(90 1321.42 217.831)" fill="#EF4358"/>
<circle cx="1321.42" cy="259.528" r="2.84299" transform="rotate(90 1321.42 259.528)" fill="#EF4358"/>
<circle cx="1279.73" cy="92.739" r="2.84299" transform="rotate(90 1279.73 92.739)" fill="#EF4358"/>
<circle cx="1279.73" cy="134.436" r="2.84299" transform="rotate(90 1279.73 134.436)" fill="#EF4358"/>
<circle cx="1279.73" cy="176.133" r="2.84299" transform="rotate(90 1279.73 176.133)" fill="#EF4358"/>
<circle cx="1279.73" cy="217.831" r="2.84299" transform="rotate(90 1279.73 217.831)" fill="#EF4358"/>
<circle cx="1279.73" cy="259.528" r="2.84299" transform="rotate(90 1279.73 259.528)" fill="#EF4358"/>
<circle cx="1238.03" cy="92.739" r="2.84299" transform="rotate(90 1238.03 92.739)" fill="#EF4358"/>
<circle cx="1238.03" cy="134.436" r="2.84299" transform="rotate(90 1238.03 134.436)" fill="#EF4358"/>
<circle cx="1238.03" cy="176.133" r="2.84299" transform="rotate(90 1238.03 176.133)" fill="#EF4358"/>
<circle cx="1238.03" cy="217.831" r="2.84299" transform="rotate(90 1238.03 217.831)" fill="#EF4358"/>
<circle cx="1238.03" cy="259.528" r="2.84299" transform="rotate(90 1238.03 259.528)" fill="#EF4358"/>
<circle cx="1196.33" cy="92.739" r="2.84299" transform="rotate(90 1196.33 92.739)" fill="#EF4358"/>
<circle cx="1196.33" cy="134.436" r="2.84299" transform="rotate(90 1196.33 134.436)" fill="#EF4358"/>
<circle cx="1196.33" cy="176.133" r="2.84299" transform="rotate(90 1196.33 176.133)" fill="#EF4358"/>
<circle cx="1196.33" cy="217.831" r="2.84299" transform="rotate(90 1196.33 217.831)" fill="#EF4358"/>
<circle cx="1196.33" cy="259.528" r="2.84299" transform="rotate(90 1196.33 259.528)" fill="#EF4358"/>
<circle cx="1154.63" cy="92.739" r="2.84299" transform="rotate(90 1154.63 92.739)" fill="#EF4358"/>
<circle cx="1154.63" cy="134.436" r="2.84299" transform="rotate(90 1154.63 134.436)" fill="#EF4358"/>
<circle cx="1154.63" cy="176.133" r="2.84299" transform="rotate(90 1154.63 176.133)" fill="#EF4358"/>
<circle cx="1154.63" cy="217.831" r="2.84299" transform="rotate(90 1154.63 217.831)" fill="#EF4358"/>
<circle cx="1154.63" cy="259.528" r="2.84299" transform="rotate(90 1154.63 259.528)" fill="#EF4358"/>
<circle cx="1112.94" cy="92.739" r="2.84299" transform="rotate(90 1112.94 92.739)" fill="#EF4358"/>
<circle cx="1112.94" cy="134.436" r="2.84299" transform="rotate(90 1112.94 134.436)" fill="#EF4358"/>
<circle cx="1112.94" cy="176.133" r="2.84299" transform="rotate(90 1112.94 176.133)" fill="#EF4358"/>
<circle cx="1112.94" cy="217.831" r="2.84299" transform="rotate(90 1112.94 217.831)" fill="#EF4358"/>
<circle cx="1112.94" cy="259.528" r="2.84299" transform="rotate(90 1112.94 259.528)" fill="#EF4358"/>
<circle cx="1071.24" cy="134.436" r="2.84299" transform="rotate(90 1071.24 134.436)" fill="#EF4358"/>
<circle cx="1071.24" cy="176.133" r="2.84299" transform="rotate(90 1071.24 176.133)" fill="#EF4358"/>
<circle cx="1071.24" cy="217.831" r="2.84299" transform="rotate(90 1071.24 217.831)" fill="#EF4358"/>
<circle cx="1071.24" cy="259.528" r="2.84299" transform="rotate(90 1071.24 259.528)" fill="#EF4358"/>
<circle cx="1029.54" cy="92.739" r="2.84299" transform="rotate(90 1029.54 92.739)" fill="#EF4358"/>
<circle cx="1029.54" cy="134.436" r="2.84299" transform="rotate(90 1029.54 134.436)" fill="#EF4358"/>
<circle cx="1029.54" cy="176.133" r="2.84299" transform="rotate(90 1029.54 176.133)" fill="#EF4358"/>
<circle cx="1029.54" cy="217.831" r="2.84299" transform="rotate(90 1029.54 217.831)" fill="#EF4358"/>
<circle cx="1029.54" cy="259.528" r="2.84299" transform="rotate(90 1029.54 259.528)" fill="#EF4358"/>
<circle cx="987.845" cy="92.739" r="2.84299" transform="rotate(90 987.845 92.739)" fill="#EF4358"/>
<circle cx="987.845" cy="134.436" r="2.84299" transform="rotate(90 987.845 134.436)" fill="#EF4358"/>
<circle cx="987.845" cy="176.133" r="2.84299" transform="rotate(90 987.845 176.133)" fill="#EF4358"/>
<circle cx="987.845" cy="217.831" r="2.84299" transform="rotate(90 987.845 217.831)" fill="#EF4358"/>
<circle cx="987.845" cy="259.528" r="2.84299" transform="rotate(90 987.845 259.528)" fill="#EF4358"/>
<circle cx="103.277" cy="145.409" r="11.2164" stroke="#FFBA49" stroke-width="5"/>
<circle cx="211.329" cy="573.543" r="2.84299" transform="rotate(90 211.329 573.543)" fill="#70C217"/>
<circle cx="211.329" cy="615.24" r="2.84299" transform="rotate(90 211.329 615.24)" fill="#70C217"/>
<circle cx="211.329" cy="656.937" r="2.84299" transform="rotate(90 211.329 656.937)" fill="#70C217"/>
<circle cx="211.329" cy="698.634" r="2.84299" transform="rotate(90 211.329 698.634)" fill="#70C217"/>
<circle cx="169.632" cy="573.543" r="2.84299" transform="rotate(90 169.632 573.543)" fill="#70C217"/>
<circle cx="169.632" cy="615.24" r="2.84299" transform="rotate(90 169.632 615.24)" fill="#70C217"/>
<circle cx="169.632" cy="656.937" r="2.84299" transform="rotate(90 169.632 656.937)" fill="#70C217"/>
<circle cx="169.632" cy="698.634" r="2.84299" transform="rotate(90 169.632 698.634)" fill="#70C217"/>
<circle cx="127.935" cy="573.543" r="2.84299" transform="rotate(90 127.935 573.543)" fill="#70C217"/>
<circle cx="127.935" cy="615.24" r="2.84299" transform="rotate(90 127.935 615.24)" fill="#70C217"/>
<circle cx="127.935" cy="656.937" r="2.84299" transform="rotate(90 127.935 656.937)" fill="#70C217"/>
<circle cx="127.935" cy="698.634" r="2.84299" transform="rotate(90 127.935 698.634)" fill="#70C217"/>
<circle cx="86.2375" cy="573.543" r="2.84299" transform="rotate(90 86.2375 573.543)" fill="#70C217"/>
<circle cx="86.2374" cy="615.24" r="2.84299" transform="rotate(90 86.2374 615.24)" fill="#70C217"/>
<circle cx="86.2374" cy="656.937" r="2.84299" transform="rotate(90 86.2374 656.937)" fill="#70C217"/>
<circle cx="86.2375" cy="698.634" r="2.84299" transform="rotate(90 86.2375 698.634)" fill="#70C217"/>
<circle cx="44.5403" cy="573.543" r="2.84299" transform="rotate(90 44.5403 573.543)" fill="#70C217"/>
<circle cx="44.5403" cy="615.24" r="2.84299" transform="rotate(90 44.5403 615.24)" fill="#70C217"/>
<circle cx="44.5403" cy="656.937" r="2.84299" transform="rotate(90 44.5403 656.937)" fill="#70C217"/>
<circle cx="44.5403" cy="698.634" r="2.84299" transform="rotate(90 44.5403 698.634)" fill="#70C217"/>
<circle cx="2.8431" cy="573.543" r="2.84299" transform="rotate(90 2.8431 573.543)" fill="#70C217"/>
<circle cx="2.84304" cy="615.24" r="2.84299" transform="rotate(90 2.84304 615.24)" fill="#70C217"/>
<circle cx="2.84304" cy="656.937" r="2.84299" transform="rotate(90 2.84304 656.937)" fill="#70C217"/>
<circle cx="2.84304" cy="698.634" r="2.84299" transform="rotate(90 2.84304 698.634)" fill="#70C217"/>
<circle cx="44.2701" cy="451.986" r="22.1804" transform="rotate(16.0891 44.2701 451.986)" stroke="#FFBA49" stroke-width="5"/>
<circle cx="1252.63" cy="411.347" r="14.8472" stroke="#FFBA49" stroke-width="5"/>
<circle cx="1363.12" cy="485.756" r="2.84299" transform="rotate(90 1363.12 485.756)" fill="#EF4358"/>
<circle cx="1363.12" cy="527.453" r="2.84299" transform="rotate(90 1363.12 527.453)" fill="#EF4358"/>
<circle cx="1363.12" cy="569.15" r="2.84299" transform="rotate(90 1363.12 569.15)" fill="#EF4358"/>
<circle cx="1363.12" cy="610.848" r="2.84299" transform="rotate(90 1363.12 610.848)" fill="#EF4358"/>
<circle cx="1363.12" cy="652.545" r="2.84299" transform="rotate(90 1363.12 652.545)" fill="#EF4358"/>
<circle cx="1321.42" cy="485.756" r="2.84299" transform="rotate(90 1321.42 485.756)" fill="#EF4358"/>
<circle cx="1321.42" cy="527.453" r="2.84299" transform="rotate(90 1321.42 527.453)" fill="#EF4358"/>
<circle cx="1321.42" cy="569.15" r="2.84299" transform="rotate(90 1321.42 569.15)" fill="#EF4358"/>
<circle cx="1321.42" cy="610.848" r="2.84299" transform="rotate(90 1321.42 610.848)" fill="#EF4358"/>
<circle cx="1321.42" cy="652.545" r="2.84299" transform="rotate(90 1321.42 652.545)" fill="#EF4358"/>
<circle cx="1279.73" cy="485.756" r="2.84299" transform="rotate(90 1279.73 485.756)" fill="#EF4358"/>
<circle cx="1279.73" cy="527.453" r="2.84299" transform="rotate(90 1279.73 527.453)" fill="#EF4358"/>
<circle cx="1279.73" cy="569.15" r="2.84299" transform="rotate(90 1279.73 569.15)" fill="#EF4358"/>
<circle cx="1279.73" cy="610.848" r="2.84299" transform="rotate(90 1279.73 610.848)" fill="#EF4358"/>
<circle cx="1279.73" cy="652.545" r="2.84299" transform="rotate(90 1279.73 652.545)" fill="#EF4358"/>
<circle cx="1238.03" cy="485.756" r="2.84299" transform="rotate(90 1238.03 485.756)" fill="#EF4358"/>
<circle cx="1238.03" cy="527.453" r="2.84299" transform="rotate(90 1238.03 527.453)" fill="#EF4358"/>
<circle cx="1238.03" cy="569.15" r="2.84299" transform="rotate(90 1238.03 569.15)" fill="#EF4358"/>
<circle cx="1238.03" cy="610.848" r="2.84299" transform="rotate(90 1238.03 610.848)" fill="#EF4358"/>
<circle cx="1238.03" cy="652.545" r="2.84299" transform="rotate(90 1238.03 652.545)" fill="#EF4358"/>
<circle cx="1196.33" cy="485.756" r="2.84299" transform="rotate(90 1196.33 485.756)" fill="#EF4358"/>
<circle cx="1196.33" cy="527.453" r="2.84299" transform="rotate(90 1196.33 527.453)" fill="#EF4358"/>
<circle cx="1196.33" cy="569.15" r="2.84299" transform="rotate(90 1196.33 569.15)" fill="#EF4358"/>
<circle cx="1196.33" cy="610.848" r="2.84299" transform="rotate(90 1196.33 610.848)" fill="#EF4358"/>
<circle cx="1196.33" cy="652.545" r="2.84299" transform="rotate(90 1196.33 652.545)" fill="#EF4358"/>
<circle cx="1154.63" cy="485.756" r="2.84299" transform="rotate(90 1154.63 485.756)" fill="#EF4358"/>
<circle cx="1154.63" cy="527.453" r="2.84299" transform="rotate(90 1154.63 527.453)" fill="#EF4358"/>
<circle cx="1154.63" cy="569.15" r="2.84299" transform="rotate(90 1154.63 569.15)" fill="#EF4358"/>
<circle cx="1154.63" cy="610.848" r="2.84299" transform="rotate(90 1154.63 610.848)" fill="#EF4358"/>
<circle cx="1154.63" cy="652.545" r="2.84299" transform="rotate(90 1154.63 652.545)" fill="#EF4358"/>
<circle cx="1112.94" cy="485.756" r="2.84299" transform="rotate(90 1112.94 485.756)" fill="#EF4358"/>
<circle cx="1112.94" cy="527.453" r="2.84299" transform="rotate(90 1112.94 527.453)" fill="#EF4358"/>
<circle cx="1112.94" cy="569.15" r="2.84299" transform="rotate(90 1112.94 569.15)" fill="#EF4358"/>
<circle cx="1112.94" cy="610.848" r="2.84299" transform="rotate(90 1112.94 610.848)" fill="#EF4358"/>
<circle cx="1112.94" cy="652.545" r="2.84299" transform="rotate(90 1112.94 652.545)" fill="#EF4358"/>
<circle cx="1071.24" cy="527.453" r="2.84299" transform="rotate(90 1071.24 527.453)" fill="#EF4358"/>
<circle cx="1071.24" cy="569.15" r="2.84299" transform="rotate(90 1071.24 569.15)" fill="#EF4358"/>
<circle cx="1071.24" cy="610.848" r="2.84299" transform="rotate(90 1071.24 610.848)" fill="#EF4358"/>
<circle cx="1071.24" cy="652.545" r="2.84299" transform="rotate(90 1071.24 652.545)" fill="#EF4358"/>
<circle cx="1029.54" cy="485.756" r="2.84299" transform="rotate(90 1029.54 485.756)" fill="#EF4358"/>
<circle cx="1029.54" cy="527.453" r="2.84299" transform="rotate(90 1029.54 527.453)" fill="#EF4358"/>
<circle cx="1029.54" cy="569.15" r="2.84299" transform="rotate(90 1029.54 569.15)" fill="#EF4358"/>
<circle cx="1029.54" cy="610.848" r="2.84299" transform="rotate(90 1029.54 610.848)" fill="#EF4358"/>
<circle cx="1029.54" cy="652.545" r="2.84299" transform="rotate(90 1029.54 652.545)" fill="#EF4358"/>
<circle cx="987.845" cy="485.756" r="2.84299" transform="rotate(90 987.845 485.756)" fill="#EF4358"/>
<circle cx="987.845" cy="527.453" r="2.84299" transform="rotate(90 987.845 527.453)" fill="#EF4358"/>
<circle cx="987.845" cy="569.15" r="2.84299" transform="rotate(90 987.845 569.15)" fill="#EF4358"/>
<circle cx="987.845" cy="610.848" r="2.84299" transform="rotate(90 987.845 610.848)" fill="#EF4358"/>
<circle cx="987.845" cy="652.545" r="2.84299" transform="rotate(90 987.845 652.545)" fill="#EF4358"/>
<circle cx="103.277" cy="538.426" r="11.2164" stroke="#FFBA49" stroke-width="5"/>
</svg>
