<svg width="27" height="20" viewBox="0 0 27 20" fill="none" xmlns="http://www.w3.org/2000/svg">
<path d="M26.6328 17.2913L21.3748 13.3971C21.1375 13.2214 20.8158 13.1237 20.4783 13.1237H19.6186C21.0742 11.7449 21.9391 10.0107 21.9391 8.12421C21.9391 3.63636 17.0292 0 10.9696 0C4.90993 0 0 3.63636 0 8.12421C0 12.612 4.90993 16.2484 10.9696 16.2484C13.5168 16.2484 15.8584 15.6079 17.72 14.5298V15.1665C17.72 15.4165 17.8519 15.6547 18.0892 15.8305L23.3472 19.7246C23.843 20.0918 24.6446 20.0918 25.135 19.7246L26.6275 18.6193C27.1233 18.2521 27.1233 17.6584 26.6328 17.2913ZM10.9696 13.1237C7.24096 13.1237 4.21906 10.8896 4.21906 8.12421C4.21906 5.36276 7.23569 3.12469 10.9696 3.12469C14.6981 3.12469 17.72 5.35885 17.72 8.12421C17.72 10.8857 14.7034 13.1237 10.9696 13.1237Z" fill="#B3C0D8" fill-opacity="0.85"/>
</svg>
