<?xml version="1.0" encoding="utf-8"?>
<!-- Generator: Adobe Illustrator 26.0.0, SVG Export Plug-In . SVG Version: 6.00 Build 0)  -->
<svg version="1.1" id="Object" xmlns="http://www.w3.org/2000/svg" xmlns:xlink="http://www.w3.org/1999/xlink" x="0px" y="0px"
	 viewBox="0 0 483.4 138.4" style="enable-background:new 0 0 483.4 138.4;" xml:space="preserve">
<style type="text/css">
	.st0{fill:#5697B7;}
	.st1{fill:#DC911B;}
	.st2{fill:#9C9B9B;}
</style>
<path class="st0" d="M24.3,14.9h16.8v14.3H24.3V14.9z M24.3,35.8H41v58H24.3V35.8z"/>
<path class="st0" d="M114.4,30.7H88.7v63.1H71V30.7H45.2V14.9h69.3V30.7z"/>
<path class="st0" d="M151.6,34.8c1.4,0.3,2.8,0.6,4.2,1l-2.5,14.5c-2.2-1-4.5-1.4-6.8-1.3c-4.6-0.2-8.9,1.9-11.7,5.6
	c-0.8,1-1.4,2.1-2,3.2v36h-16.7v-58h13.9l1.2,7.6c0.6-1,1.3-1.9,2.1-2.8c3.6-4.1,8.8-6.4,14.2-6.3C148.8,34.4,150.2,34.5,151.6,34.8
	z"/>
<path class="st0" d="M211.6,52.6c0.5,3.5,0.7,7,0.6,10.4v30.7H198l-0.6-5c-2.5,2.2-5.4,3.9-8.5,4.9c-3.2,1.2-6.6,1.8-10,1.9
	c-6.5,0-11.7-1.7-15.6-5.2c-4-3.5-6-8.4-6-14.7c0-7,2.7-12,8.2-14.9s12.1-4.4,20.1-4.4c3.6,0,7.2,0.3,10.7,0.8v-0.7
	c-0.1-3.3-1.1-5.6-3.2-7s-5.1-2.1-9.1-2.1c-3.5,0-6.9,0.5-10.3,1.3c-3.1,0.8-6,1.8-8.9,3.1l-4.5-11.7c3.7-2.1,7.7-3.7,11.8-4.7
	c4.4-1.1,8.9-1.7,13.5-1.7c5.1-0.1,10.1,0.9,14.7,2.8c4.1,1.7,7.5,4.9,9.4,9C210.6,47.8,211.3,50.2,211.6,52.6z M189.6,80.6
	c2.4-0.6,4.6-1.7,6.5-3.3v-9.1c-3.1-0.5-6.3-0.7-9.5-0.7c-3.3-0.1-6.5,0.5-9.5,1.7c-2.4,0.9-3.9,3.3-3.7,5.8c0,4.4,2.9,6.6,8.8,6.6
	C184.8,81.6,187.2,81.3,189.6,80.6L189.6,80.6z"/>
<path class="st0" d="M220.9,14.9h16.9v14.3h-16.9V14.9z M220.9,35.8h16.6v58h-16.6V35.8z"/>
<path class="st0" d="M303.6,58.5v35.3h-16.9V62.2c0-4.4-0.8-7.8-2.4-10.2c-1.6-2.4-4.2-3.6-8-3.6c-4.3,0-8.7,2.5-13.2,7.6v37.9
	h-16.7v-58h14.6l0.8,7c6.3-6.1,13.2-9.2,20.8-9.2c2.8,0,5.6,0.5,8.3,1.6c2.5,0.9,4.6,2.4,6.4,4.4C301.5,44,303.6,50.3,303.6,58.5z"
	/>
<path class="st0" d="M312.4,14.9h16.9v14.3h-16.9V14.9z M312.4,35.8H329v58h-16.6V35.8z"/>
<path class="st0" d="M395.1,58.5v35.3h-16.9V62.2c0-4.4-0.8-7.8-2.4-10.2c-1.6-2.4-4.2-3.6-8-3.6c-4.3,0-8.7,2.5-13.2,7.6v37.9H338
	v-58h14.6l0.8,7c6.3-6.1,13.2-9.2,20.7-9.2c2.8,0,5.6,0.5,8.3,1.5c2.5,0.9,4.6,2.5,6.4,4.4C393,44,395.1,50.3,395.1,58.5z"/>
<path class="st0" d="M460.9,35.8V90c0.2,5.7-1.2,11.4-4,16.4c-2.6,4.6-6.5,8.2-11.2,10.6c-5.2,2.5-10.9,3.8-16.7,3.6
	c-4.3,0-8.5-0.6-12.6-1.7c-4.2-1-8.2-2.6-11.9-4.8l4.2-13.1c3,1.5,6.1,2.6,9.4,3.5c3.4,0.9,6.8,1.4,10.3,1.4c5.9,0,10.1-1.3,12.6-4
	s3.8-6.4,3.8-11.3v-2.9c-2.2,2.5-4.8,4.5-7.8,5.8c-2.9,1.3-6.1,2-9.3,2c-5.1,0.1-10-1.3-14.3-4.1c-4-2.8-7.1-6.6-9-11.1
	c-2.1-5-3.2-10.3-3.1-15.7c-0.1-5.4,1-10.8,3-15.8c1.9-4.5,5-8.4,9-11.2c4.2-2.8,9.1-4.2,14.2-4.1c3.8,0,7.5,0.9,10.7,2.7
	c3.4,1.9,6.3,4.6,8.4,7.8l0.9-8.4L460.9,35.8z M441,76.4c2.3-2.8,3.5-6.7,3.5-11.7c0-5-1.2-8.9-3.5-11.8c-2.4-2.9-5.7-4.3-10-4.3
	s-7.6,1.4-10,4.3c-2.3,2.9-3.5,6.8-3.5,11.8c0,5,1.2,8.9,3.5,11.7c2.3,2.8,5.7,4.2,10,4.2C435.3,80.6,438.7,79.2,441,76.4z"/>
<path class="st1" d="M23.8,98.7h5.1c2.8,0,4.9,2,4.9,6.1s-1.9,6.1-5.2,6.1h-1.8v8.4h-3.1V98.7z M26.9,108h1.5c1.7,0,2.5-1,2.5-3.2
	s-0.9-3.1-2.3-3.1h-1.7L26.9,108z"/>
<path class="st1" d="M35.6,119.3V97.7h3v21.5L35.6,119.3z"/>
<path class="st1" d="M49.7,115.8c0,0.8,0.1,2.7,0.1,3.4h-2.7c-0.1-0.5-0.1-0.9-0.1-1.4c-0.5,1.1-1.7,1.8-3,1.7
	c-2.5,0-3.5-2.4-3.5-4.6c0-3.2,1.8-5.2,5.2-5.2c0.4,0,0.8,0,1.1,0V108c0-0.9-0.1-2-1.4-2s-1.4,1-1.5,2H41c0-2.3,1-4.8,4.5-4.8
	c2.8,0,4.2,1.5,4.2,4.5L49.7,115.8z M46.8,112.3c-0.3-0.1-0.7-0.1-1-0.1c-1.1-0.2-2.1,0.5-2.3,1.6c0,0.2,0,0.4,0,0.6
	c0,0.9,0.4,2,1.5,2c1.5,0,1.8-1.4,1.8-3.7L46.8,112.3z"/>
<path class="st1" d="M51,103.6h1.7v-3.9h3v3.9h2v3h-2v8.6c0,0.9,0.1,1.4,1.1,1.4c0.2,0,0.5,0,0.7-0.1v2.7c-0.6,0.2-1.2,0.3-1.8,0.3
	c-2.1,0-3-0.9-3-3.8v-9.2H51V103.6z"/>
<path class="st1" d="M68,115.8c0,0.8,0,2.7,0.1,3.4h-2.8c-0.1-0.5-0.1-1-0.1-1.5c-0.5,1.1-1.7,1.8-3,1.7c-2.5,0-3.5-2.4-3.5-4.6
	c0-3.2,1.8-5.2,5.2-5.2c0.4,0,0.8,0,1.1,0V108c0-0.9-0.1-2-1.4-2s-1.4,1-1.5,2h-2.9c0-2.3,1-4.8,4.4-4.8c2.8,0.1,4.3,1.6,4.3,4.6
	V115.8z M65.1,112.3c-0.3-0.1-0.7-0.1-1-0.1c-1.1-0.2-2.1,0.5-2.3,1.6c0,0.2,0,0.4,0,0.6c0,0.9,0.4,2,1.5,2c1.5,0,1.8-1.4,1.8-3.7
	L65.1,112.3z"/>
<path class="st1" d="M70.9,119.3v-12.7h-1.5v-3h1.5V102c0-2.6,1-4.5,3.6-4.5c0.4,0,0.8,0.1,1.2,0.2v3c-0.2-0.1-0.5-0.1-0.7-0.1
	c-0.9,0-1.1,0.6-1.1,1.7v1.3h1.8v3h-1.8v12.7L70.9,119.3z"/>
<path class="st1" d="M86.2,111.3c0,5.7-1.7,8.3-5,8.3s-4.9-2.5-4.9-8.2c0-5.6,1.9-8.1,5-8.1S86.2,106,86.2,111.3z M79.5,111.3
	c0,3.4,0.5,5.2,1.9,5.2s1.8-1.8,1.8-5.1s-0.5-5-1.8-5S79.5,108,79.5,111.3z"/>
<path class="st1" d="M88.3,108.9c0-2.6,0-4.2,0-5.3h2.9c0.1,0.9,0.1,1.7,0.1,2.6c0.3-1.7,1.7-2.9,3.4-2.9v4.1
	c-2.1-0.1-3.3,0.7-3.3,3.7v8.2h-3L88.3,108.9z"/>
<path class="st1" d="M96.1,108.3c0-3.1,0-4,0-4.7H99c0.1,0.5,0.1,1.1,0.1,1.6c0.5-1.2,1.6-1.9,2.9-1.9c1.3-0.1,2.4,0.9,2.7,2.1
	c0.5-1.3,1.8-2.1,3.2-2.1c1.9,0,3.3,1.1,3.3,4.7v11.3h-3v-10.7c0-1.2-0.3-2.2-1.4-2.2c-1.2,0-1.6,1.1-1.6,3.1v9.8h-3v-10.7
	c0-1.4-0.4-2.2-1.4-2.2c-1.2,0-1.7,1-1.7,3.1v9.8h-3L96.1,108.3z"/>
<path class="st1" d="M122.2,115.8c0,0.8,0.1,2.7,0.1,3.4h-2.7c-0.1-0.5-0.1-1-0.1-1.5c-0.5,1.1-1.7,1.8-2.9,1.7
	c-2.5,0-3.5-2.4-3.5-4.6c0-3.2,1.8-5.2,5.2-5.2c0.4,0,0.8,0,1.1,0V108c0-0.9-0.1-2-1.4-2s-1.4,1-1.5,2h-2.9c0.1-2.3,1-4.8,4.4-4.8
	c2.8,0,4.2,1.5,4.2,4.5L122.2,115.8z M119.3,112.3c-0.3-0.1-0.7-0.1-1-0.1c-1.1-0.2-2.1,0.5-2.3,1.6c0,0.2,0,0.4,0,0.6
	c0,0.9,0.4,2,1.5,2c1.5,0,1.8-1.4,1.8-3.7L119.3,112.3z"/>
<path class="st1" d="M138.6,97.7v17.2c0,1.9,0,3.5,0,4.4h-2.9c0-0.4-0.1-1.2-0.1-1.7c-0.4,1.3-1.6,2.1-2.9,1.9c-2.8,0-3.9-3-3.9-8.2
	c0-4.8,1.3-8,4.4-8c1-0.1,1.9,0.4,2.4,1.2v-6.8L138.6,97.7z M132,111.3c0,3.6,0.5,5.1,1.8,5.1c1.6,0,1.9-1.5,1.9-5.2
	c0-3.6-0.2-4.9-1.8-4.9C132.7,106.4,132,107.5,132,111.3z"/>
<path class="st1" d="M143.7,112.3c0,2,0.2,4.2,1.9,4.2c1.5,0,1.7-1.5,1.7-2.1h2.9c0,0.5-0.3,5.1-4.7,5.1s-4.8-4.3-4.8-8.2
	c0-5,1.6-8,4.9-8c3.8,0,4.7,3.4,4.7,7.5c0,0.6,0,1.3-0.1,1.6L143.7,112.3z M147.3,109.7c0-1.5-0.1-3.5-1.8-3.5s-1.8,2.3-1.8,3.5
	H147.3z"/>
<path class="st1" d="M165.6,110.1h-5.5v6h6.1l-0.4,3.2h-8.8V98.7h8.8v3.2h-5.7v5h5.5V110.1z"/>
<path class="st1" d="M167.9,108.4c0-3.2,0-4.1,0-4.9h2.9c0.1,0.5,0.1,1.1,0.1,1.6c0.5-1.2,1.6-2,2.9-1.9c2.1,0,3.3,1.6,3.3,4.8v11.2
	h-3v-10.4c0-1.6-0.3-2.5-1.5-2.5s-1.7,0.8-1.7,3.2v9.7h-3L167.9,108.4z"/>
<path class="st1" d="M178.4,103.6h1.7v-3.9h3v3.9h2v3h-2v8.6c0,0.9,0.1,1.4,1.1,1.4c0.2,0,0.5,0,0.7-0.1v2.7
	c-0.6,0.2-1.2,0.3-1.8,0.3c-2.1,0-3-0.9-3-3.8v-9.2h-1.7L178.4,103.6z"/>
<path class="st1" d="M186.7,108.9c0-2.6,0-4.2,0-5.3h2.9c0.1,0.9,0.1,1.7,0.1,2.6c0.3-1.7,1.7-2.9,3.4-2.9v4.1
	c-2.1-0.1-3.3,0.7-3.3,3.7v8.2h-3L186.7,108.9z"/>
<path class="st1" d="M197,112.3c0,2,0.2,4.2,1.9,4.2c1.5,0,1.7-1.5,1.7-2.1h2.9c-0.1,0.5-0.3,5.1-4.7,5.1s-4.8-4.3-4.8-8.2
	c0-5,1.6-8,4.9-8c3.8,0,4.7,3.4,4.7,7.5c0,0.6,0,1.3,0,1.6L197,112.3z M200.6,109.7c0-1.5-0.1-3.5-1.8-3.5s-1.8,2.3-1.8,3.5H200.6z"
	/>
<path class="st1" d="M205.7,108.4c0-3.2,0-4.1,0-4.9h2.9c0.1,0.5,0.1,1.1,0.1,1.6c0.5-1.2,1.6-2,2.9-1.9c2.1,0,3.3,1.6,3.3,4.8v11.2
	h-3v-10.4c0-1.6-0.3-2.5-1.5-2.5s-1.7,0.8-1.7,3.2v9.7h-3L205.7,108.4z"/>
<path class="st1" d="M225.9,115.8c0,0.8,0.1,2.7,0.1,3.4h-2.7c-0.1-0.5-0.1-1-0.1-1.5c-0.5,1.2-1.7,1.8-3,1.7
	c-2.5,0-3.5-2.4-3.5-4.6c0-3.2,1.8-5.2,5.1-5.2c0.4,0,0.8,0,1.1,0V108c0-0.9-0.1-2-1.4-2s-1.4,1-1.5,2h-2.9c0-2.3,0.9-4.8,4.4-4.8
	c2.8,0,4.3,1.5,4.3,4.5L225.9,115.8z M223,112.3c-0.3-0.1-0.7-0.1-1-0.1c-1.1-0.2-2.1,0.5-2.3,1.6c0,0.2,0,0.4,0,0.6
	c0,0.9,0.4,2,1.5,2c1.5,0,1.8-1.4,1.8-3.7L223,112.3z"/>
<path class="st1" d="M228.6,108.3c0-3.1,0-4,0-4.7h2.9c0.1,0.5,0.1,1.1,0.1,1.6c0.5-1.2,1.6-1.9,2.9-1.9c1.3-0.1,2.4,0.9,2.6,2.1
	c0.5-1.3,1.8-2.2,3.2-2.1c1.9,0,3.3,1.1,3.3,4.7v11.3h-3v-10.7c0-1.2-0.3-2.2-1.4-2.2c-1.2,0-1.6,1.1-1.6,3.1v9.8h-3v-10.7
	c0-1.4-0.4-2.2-1.4-2.2c-1.2,0-1.6,1-1.6,3.1v9.8h-3L228.6,108.3z"/>
<path class="st1" d="M246.2,103.6h3v15.7h-3V103.6z M246.2,97.7h3v3.6h-3V97.7z"/>
<path class="st1" d="M254.3,112.3c0,2,0.2,4.2,1.9,4.2c1.5,0,1.7-1.5,1.7-2.1h2.9c0,0.5-0.3,5.1-4.7,5.1s-4.8-4.3-4.8-8.2
	c0-5,1.6-8,4.9-8c3.8,0,4.7,3.4,4.7,7.5c0,0.6,0,1.3,0,1.6L254.3,112.3z M258,109.7c0-1.5-0.1-3.5-1.8-3.5s-1.8,2.3-1.8,3.5H258z"/>
<path class="st1" d="M263,108.4c0-3.2,0-4.1,0-4.9h2.9c0.1,0.5,0.1,1.1,0.1,1.6c0.5-1.2,1.6-2,2.9-1.9c2.1,0,3.3,1.6,3.3,4.8v11.2
	h-3v-10.4c0-1.6-0.3-2.5-1.5-2.5s-1.7,0.8-1.7,3.2v9.7h-3L263,108.4z"/>
<path class="st1" d="M273.4,103.6h1.7v-3.9h3v3.9h2v3h-2v8.6c0,0.9,0.1,1.4,1.1,1.4c0.2,0,0.5,0,0.7-0.1v2.7
	c-0.6,0.2-1.2,0.3-1.8,0.3c-2.1,0-3-0.9-3-3.8v-9.2h-1.7L273.4,103.6z"/>
<path class="st1" d="M291,111.3c0,5.7-1.7,8.3-5,8.3s-4.9-2.5-4.9-8.2c0-5.6,1.9-8.1,5-8.1S291,106,291,111.3z M284.2,111.3
	c0,3.4,0.5,5.2,1.9,5.2s1.8-1.8,1.8-5.1s-0.5-5-1.8-5S284.2,108,284.2,111.3L284.2,111.3z"/>
<path class="st1" d="M300.9,98.7v20.5h-3.1V98.7H300.9z"/>
<path class="st1" d="M303.4,108.4c0-3.2,0-4.1,0-4.9h2.9c0.1,0.5,0.1,1.1,0.1,1.6c0.5-1.2,1.6-2,2.9-1.9c2.1,0,3.3,1.6,3.3,4.8v11.2
	h-3v-10.4c0-1.6-0.3-2.5-1.5-2.5s-1.7,0.8-1.7,3.2v9.7h-3L303.4,108.4z"/>
<path class="st1" d="M313.9,103.6h1.7v-3.9h3v3.9h2v3h-2v8.6c0,0.9,0.1,1.4,1.1,1.4c0.2,0,0.5,0,0.7-0.1v2.7
	c-0.6,0.2-1.2,0.3-1.8,0.3c-2.1,0-3-0.9-3-3.8v-9.2h-1.7L313.9,103.6z"/>
<path class="st1" d="M324.6,112.3c0,2,0.2,4.2,1.9,4.2c1.5,0,1.7-1.5,1.8-2.1h2.9c0,0.5-0.3,5.1-4.7,5.1s-4.8-4.3-4.8-8.2
	c0-5,1.6-8,4.9-8c3.8,0,4.7,3.4,4.7,7.5c0,0.6,0,1.3,0,1.6L324.6,112.3z M328.2,109.7c0-1.5-0.1-3.5-1.7-3.5s-1.8,2.3-1.8,3.5H328.2
	z"/>
<path class="st1" d="M333.2,108.9c0-2.6,0-4.2,0-5.3h2.9c0.1,0.9,0.1,1.7,0.1,2.6c0.3-1.7,1.7-2.9,3.4-2.9v4.1
	c-2.1-0.1-3.3,0.7-3.3,3.7v8.2h-3L333.2,108.9z"/>
<path class="st1" d="M349.5,115.8c0,0.8,0,2.7,0.1,3.4h-2.7c-0.1-0.5-0.1-1-0.1-1.5c-0.5,1.1-1.7,1.8-2.9,1.7
	c-2.5,0-3.5-2.4-3.5-4.6c0-3.2,1.8-5.2,5.1-5.2c0.4,0,0.8,0,1.1,0V108c0-0.9-0.1-2-1.4-2s-1.4,1-1.5,2h-2.9c0.1-2.3,1-4.8,4.5-4.8
	c2.8,0,4.3,1.5,4.3,4.5L349.5,115.8z M346.6,112.3c-0.3-0.1-0.7-0.1-1-0.1c-1.1-0.2-2.1,0.5-2.3,1.6c0,0.2,0,0.4,0,0.6
	c0,0.9,0.4,2,1.5,2c1.5,0,1.8-1.4,1.8-3.7L346.6,112.3z"/>
<path class="st1" d="M360.8,113.9c0,1.3-0.3,5.6-4.6,5.6c-3.8,0-4.7-3.6-4.7-8.2c0-4.2,1.1-8,4.8-8c4.3,0,4.4,4.4,4.4,5.4h-3
	c0-0.6-0.1-2.4-1.4-2.4s-1.8,1.8-1.8,5s0.4,5.2,1.7,5.2s1.5-1.7,1.6-2.6L360.8,113.9z"/>
<path class="st1" d="M361.8,103.6h1.7v-3.9h3v3.9h2v3h-2v8.6c0,0.9,0.1,1.4,1.1,1.4c0.2,0,0.5,0,0.7-0.1v2.7
	c-0.6,0.2-1.2,0.3-1.8,0.3c-2.1,0-3-0.9-3-3.8v-9.2h-1.7V103.6z"/>
<path class="st1" d="M370.2,103.6h3v15.7h-3V103.6z M370.2,97.7h3v3.6h-3V97.7z"/>
<path class="st1" d="M377.9,103.6c0.8,4.5,1.7,9.3,2,11.9l0,0c0.2-2.4,1.3-7.4,2.1-11.9h3l-3.7,15.7h-3.2l-3.5-15.7H377.9z"/>
<path class="st1" d="M395.5,111.3c0,5.7-1.7,8.3-4.9,8.3s-4.9-2.5-4.9-8.2c0-5.6,2-8.1,5-8.1S395.5,106,395.5,111.3z M388.8,111.3
	c0,3.4,0.5,5.2,1.9,5.2s1.8-1.8,1.8-5.1s-0.5-5-1.8-5S388.8,108,388.8,111.3z"/>
<path class="st2" d="M467.3,116.5c0.5,0,0.9,0.2,1.2,0.6c0.3,0.5,0.4,1.1,0.4,1.7c0,0.2,0,0.6,0,1.1c-0.8,0-1.7,0-2.7,0
	s-1.8,0-2.5,0v-0.4c0-0.1,0-0.3,0-0.5s0-0.5,0-0.6c0-1.1,0.4-1.6,1.1-1.6c0.5,0,1,0.3,1.2,0.7l0,0
	C466.1,116.9,466.7,116.4,467.3,116.5z M465,117.4c-0.5,0-0.8,0.4-0.8,1.1c0,0.3,0,0.6,0.1,0.9c0.2,0,0.7,0,1.6,0c0-0.1,0-0.3,0-0.4
	c0-0.4,0-0.7-0.2-1.1C465.6,117.6,465.3,117.4,465,117.4L465,117.4z M467.4,117.1c-0.6,0-1,0.6-1,1.6c0,0.2,0,0.4,0,0.5
	c0.7,0,1.3,0,1.9,0c0-0.2,0-0.3,0-0.5c0-0.4-0.1-0.9-0.3-1.3C467.9,117.3,467.6,117.1,467.4,117.1L467.4,117.1z"/>
<path class="st2" d="M465.1,112.7c0.6,0.1,1.1,0.3,1.6,0.6c0.7,0.3,1.5,0.6,2.2,0.8c0.5,0.1,0.9,0.3,1.3,0.5
	c0.3,0.3,0.4,0.7,0.4,1.1h-0.5c0-0.3-0.1-0.6-0.3-0.8c-0.2-0.2-0.5-0.3-0.9-0.3c-0.7,0.1-1.4,0.4-2.1,0.7c-1.1,0.5-1.7,0.7-1.7,0.7
	v-0.8c0.5-0.1,1-0.3,1.5-0.5c0.5-0.2,1.1-0.4,1.6-0.5l0,0c-0.5-0.1-1-0.2-1.5-0.4c-0.5-0.2-1.1-0.3-1.6-0.4V112.7z"/>
<path class="st2" d="M467.6,107l0.6,0.1v0.7c0.5,0,1.1,0,1.9,0v0.6h-1.9v2.1l-0.5,0.1c-0.5-0.3-1.1-0.6-1.6-1c-1-0.7-1.5-1-1.5-1
	v-0.8c0.6,0,1.6,0,3,0C467.7,107.6,467.7,107.3,467.6,107z M465.2,108.3L465.2,108.3c0.4,0.2,0.8,0.5,1.2,0.8
	c0.4,0.3,0.8,0.6,1.2,0.8l0,0c0-0.4,0-1,0-1.6L465.2,108.3z"/>
<path class="st2" d="M468.9,104.7v0.6c-0.6,0-1.1,0-1.7,0s-1.2,0-1.5,0l0.5,0.9l-0.4,0.2l-1-1.4v-0.3c0.9,0,1.7,0,2.5,0
	C467.7,104.8,468.3,104.8,468.9,104.7z"/>
<path class="st2" d="M467.3,100.2c0.5,0,0.9,0.1,1.2,0.4c0.4,0.3,0.6,0.8,0.5,1.2c0,0.5-0.2,0.9-0.6,1.2c-0.5,0.4-1.1,0.5-1.6,0.5
	c-2.1,0-3.2-0.9-3.3-2.6h0.5c0,0.5,0.2,1.1,0.6,1.5c0.4,0.4,1,0.6,1.5,0.6l0,0c-0.4-0.3-0.6-0.7-0.5-1.2c0-0.4,0.2-0.8,0.5-1.1
	C466.4,100.3,466.8,100.2,467.3,100.2z M467.4,100.8c-0.3,0-0.6,0.1-0.9,0.3c-0.5,0.4-0.5,1.2-0.1,1.6c0,0,0.1,0.1,0.2,0.1
	c0.5,0,1-0.1,1.5-0.3c0.3-0.1,0.5-0.4,0.5-0.7c0-0.3-0.1-0.6-0.3-0.8C468,100.9,467.7,100.8,467.4,100.8L467.4,100.8z"/>
<path class="st2" d="M465,94c0.5,0,1,0.2,1.4,0.6c0.3,0.5,0.5,1.1,0.5,1.8c0,0.1,0,0.2,0,0.2c0.6,0,1.3,0,2.1-0.1v0.7
	c-0.8,0-1.7-0.1-2.7-0.1c-0.9,0-1.7,0-2.5,0.1v-0.5c0-0.1,0-0.2,0-0.5s0-0.5,0-0.7c0-0.4,0.1-0.8,0.4-1.1
	C464.3,94.2,464.6,94,465,94z M465.2,94.6c-0.7,0-1,0.4-1,1.3c0,0.2,0,0.5,0.1,0.7c0.4,0,1.1,0,2,0c0-0.1,0-0.2,0-0.3
	C466.3,95.2,465.9,94.6,465.2,94.6L465.2,94.6z"/>
<path class="st2" d="M465.1,91l0.6,0.2c-0.1,0.2-0.1,0.4-0.1,0.6c0,0.4,0.3,0.8,0.7,0.9c1.2,0,2.1,0,2.6,0v0.7c-0.8,0-1.5-0.1-2-0.1
	c-0.6,0-1.2,0.1-1.8,0.2l-0.1-0.7c0.2,0,0.4-0.1,0.6-0.1l0,0c-0.4-0.2-0.6-0.5-0.6-0.9C464.9,91.4,465,91.2,465.1,91z"/>
<path class="st2" d="M466.9,87c0.6,0,1.2,0.2,1.6,0.6c0.4,0.3,0.6,0.8,0.6,1.3c0,0.5-0.2,0.9-0.5,1.2c-0.4,0.4-0.9,0.5-1.4,0.5
	c-0.6,0-1.2-0.2-1.6-0.6c-0.4-0.3-0.6-0.8-0.6-1.3c0-0.5,0.2-0.9,0.5-1.2C465.8,87.2,466.3,87,466.9,87z M467,87.7
	c-0.4,0-0.8,0.1-1.1,0.3c-0.5,0.3-0.6,0.9-0.3,1.4c0.1,0.1,0.2,0.2,0.3,0.3c0.3,0.2,0.7,0.3,1.1,0.3c0.4,0,0.8-0.1,1.1-0.3
	c0.3-0.2,0.5-0.5,0.5-0.9c0-0.3-0.2-0.7-0.5-0.8C467.8,87.8,467.4,87.7,467,87.7z"/>
<path class="st2" d="M468.9,82.9v0.6c-0.1,0-0.2,0-0.4,0l0,0c0.3,0.3,0.5,0.7,0.5,1.2c0,0.4-0.2,0.9-0.5,1.1
	c-0.4,0.3-0.9,0.4-1.3,0.4c-0.5,0-1.1-0.1-1.5-0.5c-0.4-0.3-0.7-0.8-0.6-1.3c0-0.3,0.1-0.6,0.3-0.9l0,0c-0.6,0-1.3,0-1.9,0v-0.7
	c0.7,0.1,1.6,0.1,2.6,0.1S468,83,468.9,82.9z M468.1,83.5c-0.8,0-1.6,0-2.4,0.1c-0.2,0.2-0.3,0.5-0.3,0.8c0,0.4,0.1,0.8,0.5,1
	c0.3,0.2,0.7,0.3,1.1,0.3c0.4,0,0.7-0.1,1-0.3c0.3-0.2,0.4-0.5,0.4-0.8C468.5,84.2,468.3,83.8,468.1,83.5z"/>
<path class="st2" d="M468.9,78.7v0.6c-0.1,0-0.2,0-0.4,0.1l0,0c0.3,0.3,0.5,0.8,0.5,1.2c0,0.4-0.1,0.7-0.3,1
	c-0.4,0.2-0.9,0.3-1.3,0.3h-0.8c-0.4,0-0.8,0-1.4,0.1v-0.7c0.5,0,1,0,1.3,0c0.5,0,1.1,0,1.6-0.2c0.3-0.1,0.4-0.4,0.4-0.7
	c0-0.4-0.1-0.7-0.3-1c-1.5,0-2.5,0-3,0v-0.7c0.5,0,1.2,0,2.1,0C467.7,78.7,468.3,78.7,468.9,78.7z"/>
<path class="st2" d="M468.3,75h0.5c0.1,0.3,0.2,0.5,0.2,0.8c0,0.6-0.2,1.1-0.6,1.5c-0.4,0.3-0.9,0.5-1.4,0.5c-0.5,0-1.1-0.2-1.5-0.6
	c-0.4-0.4-0.6-0.9-0.6-1.4c0-0.2,0-0.5,0.1-0.7l0.6,0.1c-0.1,0.3-0.1,0.5-0.1,0.8c0,0.3,0.1,0.7,0.4,0.9c0.3,0.2,0.6,0.3,1,0.3
	c0.4,0,0.8-0.1,1.1-0.4c0.3-0.3,0.5-0.7,0.4-1.1C468.4,75.5,468.3,75.2,468.3,75z"/>
<path class="st2" d="M468.3,71.5h0.5c0.1,0.3,0.2,0.5,0.2,0.8c0,0.6-0.2,1.1-0.6,1.5c-0.4,0.3-0.9,0.5-1.4,0.5
	c-0.5,0-1.1-0.2-1.5-0.6c-0.4-0.4-0.6-0.9-0.6-1.4c0-0.2,0-0.5,0.1-0.7l0.6,0.1c-0.1,0.3-0.1,0.5-0.1,0.8c0,0.3,0.1,0.7,0.4,0.9
	c0.3,0.2,0.6,0.3,1,0.3c0.4,0,0.8-0.1,1.1-0.4c0.3-0.3,0.5-0.7,0.4-1.1C468.4,72,468.3,71.7,468.3,71.5z"/>
<path class="st2" d="M463.9,69.9c0.1,0,0.3,0,0.4,0.1c0.1,0.1,0.2,0.2,0.1,0.3c0,0.1,0,0.2-0.1,0.3c-0.1,0.1-0.2,0.1-0.3,0.1
	c-0.1,0-0.3,0-0.4-0.1c-0.1-0.1-0.1-0.2-0.1-0.3c0-0.1,0-0.2,0.1-0.3C463.7,69.9,463.8,69.9,463.9,69.9z M468.9,70.1v0.7
	c-0.5,0-1.1,0-1.8,0c-0.6,0-1.3,0-1.9,0.1l-0.1-0.8c0.5,0,1.2,0,2,0C467.7,70.1,468.3,70.1,468.9,70.1L468.9,70.1z"/>
<path class="st2" d="M466.9,65.6c0.6,0,1.2,0.2,1.6,0.6c0.4,0.3,0.6,0.8,0.6,1.3c0,0.5-0.2,0.9-0.5,1.2c-0.4,0.4-0.9,0.5-1.4,0.5
	c-0.6,0-1.2-0.2-1.6-0.6c-0.4-0.3-0.6-0.8-0.6-1.3c0-0.5,0.2-0.9,0.5-1.2C465.8,65.8,466.3,65.6,466.9,65.6z M467,66.3
	c-0.4,0-0.8,0.1-1.1,0.3c-0.3,0.2-0.5,0.5-0.5,0.8c0,0.3,0.2,0.7,0.5,0.8c0.3,0.2,0.7,0.3,1.1,0.3c0.4,0,0.8-0.1,1.1-0.3
	c0.5-0.3,0.6-0.9,0.3-1.4c-0.1-0.1-0.2-0.2-0.3-0.3C467.7,66.4,467.4,66.3,467,66.3z"/>
<path class="st2" d="M468.9,61.5v0.7c-0.7-0.1-1.4-0.1-2.3-0.1c-0.3,0-0.6,0.1-0.8,0.2c-0.2,0.2-0.2,0.4-0.2,0.7
	c0,0.4,0.1,0.7,0.4,1h2.9v0.7c-0.9,0-1.6-0.1-2-0.1c-0.6,0-1.2,0.1-1.8,0.2l-0.1-0.7l0.5-0.1l0,0c-0.3-0.4-0.5-0.8-0.5-1.3
	c0-0.4,0.1-0.7,0.3-1c0.3-0.2,0.6-0.4,1-0.3L468.9,61.5L468.9,61.5z"/>
<path class="st2" d="M466.5,57.4h0.5V60c0.4,0,0.7-0.2,1-0.4c0.3-0.3,0.4-0.6,0.4-1c0-0.4,0-0.7-0.1-1.1l0.6,0.1
	c0.1,0.3,0.2,0.7,0.1,1.1c0,0.6-0.2,1.1-0.6,1.5c-0.4,0.3-0.9,0.5-1.4,0.5c-0.5,0-1.1-0.2-1.5-0.5c-0.4-0.3-0.6-0.8-0.6-1.3
	c0-0.4,0.1-0.8,0.5-1.1C465.7,57.6,466.1,57.4,466.5,57.4z M466.5,58.1c-0.7,0-1.1,0.3-1.1,0.9s0.4,1,1.2,1.1L466.5,58.1z"/>
<path class="st2" d="M467.8,54.2c0.8,0,1.2,0.5,1.2,1.4c0,0.4,0,0.8-0.1,1.2l-0.6-0.1c0.1-0.3,0.2-0.7,0.2-1.1
	c0-0.6-0.2-0.8-0.5-0.8c-0.1,0-0.3,0.1-0.4,0.2c-0.1,0.2-0.2,0.4-0.3,0.6c-0.1,0.3-0.3,0.5-0.4,0.8c-0.2,0.2-0.5,0.4-0.7,0.4
	c-0.3,0-0.6-0.1-0.8-0.3c-0.2-0.3-0.4-0.6-0.3-1c0-0.3,0-0.7,0.1-1l0.6,0.1c-0.1,0.3-0.2,0.6-0.2,0.9c0,0.5,0.1,0.7,0.4,0.7
	c0.1,0,0.3-0.1,0.4-0.2c0.1-0.2,0.3-0.4,0.3-0.6c0.1-0.3,0.2-0.5,0.4-0.8C467.2,54.3,467.5,54.2,467.8,54.2z"/>
<path class="st2" d="M467.5,48.5c1,0,1.5,0.7,1.5,2c0,0.4-0.1,0.9-0.2,1.3l-0.6-0.1c0.1-0.4,0.2-0.8,0.2-1.2c0-0.9-0.2-1.3-0.8-1.3
	c-0.3,0-0.5,0.1-0.7,0.3c-0.2,0.3-0.4,0.6-0.5,0.9c-0.1,0.4-0.3,0.7-0.6,1c-0.2,0.3-0.6,0.4-0.9,0.4c-0.4,0-0.7-0.1-1-0.4
	c-0.3-0.3-0.4-0.8-0.4-1.2c0-0.4,0-0.8,0.1-1.2l0.6,0.1c-0.1,0.4-0.2,0.8-0.2,1.2c0,0.7,0.2,1,0.7,1c0.2,0,0.4-0.1,0.5-0.3
	c0.2-0.3,0.3-0.5,0.4-0.8c0.2-0.4,0.4-0.7,0.6-1C466.7,48.8,467.1,48.6,467.5,48.5z"/>
<path class="st2" d="M468.3,46.7c0.2,0,0.3,0.1,0.4,0.2c0.1,0.1,0.2,0.3,0.2,0.4c0,0.1-0.1,0.3-0.2,0.3c-0.2,0.2-0.5,0.2-0.8,0
	c-0.1-0.1-0.2-0.3-0.2-0.4c0-0.1,0-0.3,0.1-0.3C468,46.7,468.1,46.7,468.3,46.7z"/>
<path class="st2" d="M468.9,41.5v0.8c-0.6,0.1-1.1,0.3-1.7,0.5v2.2c0.5,0.2,1.1,0.4,1.7,0.5v0.8c-0.9-0.3-1.7-0.6-2.5-1
	c-0.9-0.4-1.7-0.7-2.6-1v-0.9c0.9-0.2,1.8-0.6,2.6-0.9C467.1,42,468,41.7,468.9,41.5z M466.7,42.9c-1.5,0.6-2.4,0.9-2.5,0.9l0,0
	c0.1,0,0.9,0.3,2.5,0.9V42.9z"/>
<path class="st2" d="M468.3,39.9c0.2,0,0.3,0.1,0.4,0.2c0.1,0.1,0.2,0.3,0.2,0.4c0,0.1-0.1,0.3-0.2,0.3c-0.1,0.1-0.2,0.1-0.4,0.1
	c-0.1,0-0.3-0.1-0.4-0.2c-0.1-0.1-0.2-0.3-0.2-0.4c0-0.1,0-0.3,0.1-0.3C468.1,40,468.2,40,468.3,39.9z"/>
<path class="st2" d="M467.5,35.9c1,0,1.5,0.7,1.5,2c0,0.4-0.1,0.9-0.2,1.3l-0.6-0.1c0.1-0.4,0.2-0.8,0.2-1.2c0-0.9-0.2-1.3-0.8-1.3
	c-0.3,0-0.5,0.1-0.7,0.3c-0.2,0.3-0.4,0.6-0.5,0.9c-0.1,0.4-0.3,0.7-0.6,1c-0.5,0.5-1.4,0.5-1.9,0c-0.3-0.3-0.4-0.8-0.4-1.2
	c0-0.4,0-0.8,0.1-1.2l0.6,0.1c-0.1,0.4-0.2,0.8-0.2,1.2c0,0.7,0.2,1,0.7,1c0.2,0,0.4-0.1,0.5-0.3c0.2-0.3,0.3-0.5,0.4-0.8
	c0.2-0.4,0.4-0.7,0.6-1C466.7,36.1,467.1,35.9,467.5,35.9z"/>
</svg>
