<svg id="Object" xmlns="http://www.w3.org/2000/svg" viewBox="0 0 483.39 225.14"><defs><style>.cls-1{font-size:81px;fill:#5697b7;font-family:Nolan-ExtraBold;font-weight:800;letter-spacing:-0.05em;}.cls-2{fill:#dc911b;}.cls-3{font-size:7.75px;fill:#9c9b9b;font-family:Candara;}</style></defs><text class="cls-1" transform="translate(16.84 138.02) scale(1.3 1.38)">iTraining</text><path class="cls-2" d="M23.8,142.93h5.13c2.82,0,4.94,2,4.94,6.1S32,155.1,28.7,155.1H26.86v8.35H23.8Zm3.06,9.23h1.49c1.7,0,2.45-1,2.45-3.18s-.88-3.07-2.28-3.07H26.86Z"/><path class="cls-2" d="M35.62,163.45V141.91h3v21.54Z"/><path class="cls-2" d="M49.71,160c0,.77.06,2.71.1,3.42H47.08A9.89,9.89,0,0,1,47,162,3,3,0,0,1,44,163.72c-2.51,0-3.48-2.4-3.48-4.65,0-3.22,1.83-5.16,5.15-5.16.44,0,.77,0,1.07,0v-1.71c0-.92-.1-2-1.41-2s-1.39,1-1.47,2H41c.05-2.31,1-4.78,4.45-4.78,2.8,0,4.25,1.53,4.25,4.53Zm-2.89-3.47a4.91,4.91,0,0,0-1-.06,2,2,0,0,0-2.34,2.24c0,.95.38,2,1.5,2,1.54,0,1.82-1.39,1.82-3.72Z"/><path class="cls-2" d="M51,147.75h1.71v-3.92h3v3.92h2v3h-2v8.59c0,.91.14,1.43,1.08,1.43a2.88,2.88,0,0,0,.74-.06v2.66a4.47,4.47,0,0,1-1.84.32c-2.09,0-3-.93-3-3.75v-9.19H51Z"/><path class="cls-2" d="M68,160c0,.77,0,2.71.1,3.42H65.33a11.62,11.62,0,0,1-.12-1.46,3,3,0,0,1-2.95,1.73c-2.51,0-3.47-2.4-3.47-4.65,0-3.22,1.83-5.16,5.15-5.16.44,0,.77,0,1.06,0v-1.71c0-.92-.09-2-1.4-2s-1.4,1-1.47,2H59.27c0-2.31.95-4.78,4.44-4.78C66.52,147.48,68,149,68,152Zm-2.9-3.47a4.75,4.75,0,0,0-1-.06,2,2,0,0,0-2.34,2.24c0,.95.38,2,1.5,2,1.54,0,1.81-1.39,1.81-3.72Z"/><path class="cls-2" d="M70.91,163.45V150.72H69.39v-3h1.52v-1.53c0-2.61,1-4.52,3.58-4.52a4.53,4.53,0,0,1,1.24.18v3a2.82,2.82,0,0,0-.71-.09c-.87,0-1.1.58-1.1,1.66v1.27h1.85v3H73.92v12.73Z"/><path class="cls-2" d="M86.25,155.47c0,5.69-1.74,8.28-5,8.28s-4.86-2.47-4.86-8.2c0-5.56,1.94-8.07,5-8.07S86.25,150.21,86.25,155.47Zm-6.77.06c0,3.37.47,5.19,1.91,5.19s1.82-1.8,1.82-5.15-.48-5-1.84-5S79.48,152.16,79.48,155.53Z"/><path class="cls-2" d="M88.3,153.07c0-2.58,0-4.2,0-5.32h2.87a25.76,25.76,0,0,1,.08,2.59,3.42,3.42,0,0,1,3.42-2.85v4.06c-2.14-.06-3.34.69-3.34,3.66v8.24h-3Z"/><path class="cls-2" d="M96.14,152.46c0-3.1,0-4,0-4.71H99a13.78,13.78,0,0,1,.1,1.6,3,3,0,0,1,2.87-1.87,2.59,2.59,0,0,1,2.65,2.13,3.41,3.41,0,0,1,3.2-2.13c1.86,0,3.31,1.14,3.31,4.71v11.26h-3V152.73c0-1.25-.34-2.17-1.38-2.17-1.23,0-1.62,1.12-1.62,3.06v9.83h-3V152.79c0-1.44-.41-2.2-1.38-2.2-1.21,0-1.65,1-1.65,3.11v9.75h-3Z"/><path class="cls-2" d="M122.16,160c0,.77.06,2.71.1,3.42h-2.73a9.89,9.89,0,0,1-.13-1.46,3,3,0,0,1-2.94,1.73c-2.51,0-3.48-2.4-3.48-4.65,0-3.22,1.84-5.16,5.15-5.16.44,0,.77,0,1.07,0v-1.71c0-.92-.1-2-1.41-2s-1.39,1-1.47,2h-2.86c.05-2.31,1-4.78,4.45-4.78,2.8,0,4.25,1.53,4.25,4.53Zm-2.89-3.47a4.91,4.91,0,0,0-1-.06,2,2,0,0,0-2.34,2.24c0,.95.39,2,1.5,2,1.54,0,1.82-1.39,1.82-3.72Z"/><path class="cls-2" d="M138.64,141.91v17.17c0,1.86,0,3.46,0,4.37h-2.9c0-.4-.09-1.2-.09-1.67a2.72,2.72,0,0,1-2.9,1.94c-2.75,0-3.85-3-3.85-8.25,0-4.81,1.31-8,4.35-8a2.29,2.29,0,0,1,2.35,1.24v-6.81ZM132,155.52c0,3.64.54,5.14,1.82,5.14,1.56,0,1.9-1.46,1.9-5.25,0-3.62-.24-4.85-1.77-4.85C132.71,150.56,132,151.68,132,155.52Z"/><path class="cls-2" d="M143.66,156.54c0,2,.21,4.21,1.88,4.21,1.5,0,1.69-1.54,1.74-2.07h2.89c0,.5-.34,5.07-4.68,5.07s-4.82-4.28-4.82-8.25c0-5,1.57-8,4.88-8,3.79,0,4.72,3.41,4.72,7.51,0,.55,0,1.28-.05,1.55Zm3.64-2.62c0-1.53-.15-3.47-1.75-3.47s-1.83,2.34-1.84,3.47Z"/><path class="cls-2" d="M165.65,154.33h-5.48v6h6.15l-.38,3.16h-8.79V142.93h8.75v3.22h-5.73v5h5.48Z"/><path class="cls-2" d="M167.91,152.64c0-3.23,0-4.06,0-4.89h2.9a14.66,14.66,0,0,1,.09,1.64,3,3,0,0,1,2.89-1.93c2.13,0,3.34,1.62,3.34,4.79v11.2h-3V153.08c0-1.56-.26-2.52-1.47-2.52s-1.69.78-1.69,3.16v9.73h-3Z"/><path class="cls-2" d="M178.37,147.75h1.71v-3.92h3v3.92h2v3h-2v8.59c0,.91.14,1.43,1.08,1.43a2.88,2.88,0,0,0,.74-.06v2.66a4.47,4.47,0,0,1-1.84.32c-2.09,0-3-.93-3-3.75v-9.19h-1.71Z"/><path class="cls-2" d="M186.7,153.07c0-2.58,0-4.2,0-5.32h2.87a25.76,25.76,0,0,1,.08,2.59,3.42,3.42,0,0,1,3.42-2.85v4.06c-2.14-.06-3.34.69-3.34,3.66v8.24h-3Z"/><path class="cls-2" d="M197,156.54c0,2,.21,4.21,1.88,4.21,1.5,0,1.69-1.54,1.74-2.07h2.89c-.05.5-.34,5.07-4.68,5.07S194,159.47,194,155.5c0-5,1.57-8,4.88-8,3.79,0,4.72,3.41,4.72,7.51,0,.55,0,1.28,0,1.55Zm3.64-2.62c0-1.53-.15-3.47-1.75-3.47s-1.83,2.34-1.84,3.47Z"/><path class="cls-2" d="M205.66,152.64c0-3.23,0-4.06,0-4.89h2.9a14.66,14.66,0,0,1,.09,1.64,3,3,0,0,1,2.89-1.93c2.13,0,3.34,1.62,3.34,4.79v11.2h-3V153.08c0-1.56-.26-2.52-1.47-2.52s-1.69.78-1.69,3.16v9.73h-3Z"/><path class="cls-2" d="M225.91,160c0,.77.05,2.71.1,3.42h-2.74a11.62,11.62,0,0,1-.12-1.46,3,3,0,0,1-3,1.73c-2.51,0-3.47-2.4-3.47-4.65,0-3.22,1.83-5.16,5.14-5.16.44,0,.78,0,1.07,0v-1.71c0-.92-.09-2-1.4-2s-1.4,1-1.47,2h-2.86c0-2.31.95-4.78,4.44-4.78,2.81,0,4.26,1.53,4.26,4.53Zm-2.9-3.47a4.75,4.75,0,0,0-1-.06,2,2,0,0,0-2.34,2.24c0,.95.38,2,1.5,2,1.54,0,1.81-1.39,1.81-3.72Z"/><path class="cls-2" d="M228.61,152.46c0-3.1,0-4,0-4.71h2.87a13.78,13.78,0,0,1,.1,1.6,3,3,0,0,1,2.87-1.87,2.59,2.59,0,0,1,2.65,2.13,3.39,3.39,0,0,1,3.2-2.13c1.86,0,3.31,1.14,3.31,4.71v11.26h-3V152.73c0-1.25-.34-2.17-1.38-2.17-1.23,0-1.62,1.12-1.62,3.06v9.83h-3V152.79c0-1.44-.41-2.2-1.38-2.2-1.21,0-1.65,1-1.65,3.11v9.75h-3Z"/><path class="cls-2" d="M246.24,147.75h3v15.7h-3Zm0-5.84h3v3.58h-3Z"/><path class="cls-2" d="M254.34,156.54c0,2,.21,4.21,1.88,4.21,1.5,0,1.69-1.54,1.74-2.07h2.89c-.05.5-.34,5.07-4.68,5.07s-4.82-4.28-4.82-8.25c0-5,1.57-8,4.88-8,3.79,0,4.72,3.41,4.72,7.51,0,.55,0,1.28-.05,1.55Zm3.64-2.62c0-1.53-.15-3.47-1.75-3.47s-1.83,2.34-1.84,3.47Z"/><path class="cls-2" d="M263,152.64c0-3.23,0-4.06,0-4.89h2.9a14.66,14.66,0,0,1,.09,1.64,3,3,0,0,1,2.89-1.93c2.13,0,3.34,1.62,3.34,4.79v11.2h-3V153.08c0-1.56-.26-2.52-1.47-2.52s-1.69.78-1.69,3.16v9.73h-3Z"/><path class="cls-2" d="M273.44,147.75h1.71v-3.92h3v3.92h2v3h-2v8.59c0,.91.14,1.43,1.08,1.43a2.88,2.88,0,0,0,.74-.06v2.66a4.47,4.47,0,0,1-1.84.32c-2.09,0-3-.93-3-3.75v-9.19h-1.71Z"/><path class="cls-2" d="M291,155.47c0,5.69-1.74,8.28-5,8.28s-4.86-2.47-4.86-8.2c0-5.56,1.94-8.07,5-8.07S291,150.21,291,155.47Zm-6.77.06c0,3.37.47,5.19,1.91,5.19s1.81-1.8,1.81-5.15-.47-5-1.84-5S284.2,152.16,284.2,155.53Z"/><path class="cls-2" d="M300.9,142.93v20.52h-3.06V142.93Z"/><path class="cls-2" d="M303.43,152.64c0-3.23,0-4.06,0-4.89h2.9a14.66,14.66,0,0,1,.09,1.64,3,3,0,0,1,2.89-1.93c2.13,0,3.34,1.62,3.34,4.79v11.2h-3V153.08c0-1.56-.26-2.52-1.47-2.52s-1.69.78-1.69,3.16v9.73h-3Z"/><path class="cls-2" d="M313.89,147.75h1.71v-3.92h3v3.92h2v3h-2v8.59c0,.91.14,1.43,1.08,1.43a2.88,2.88,0,0,0,.74-.06v2.66a4.47,4.47,0,0,1-1.84.32c-2.09,0-3-.93-3-3.75v-9.19h-1.71Z"/><path class="cls-2" d="M324.6,156.54c0,2,.2,4.21,1.87,4.21,1.51,0,1.7-1.54,1.75-2.07h2.88c0,.5-.34,5.07-4.67,5.07s-4.82-4.28-4.82-8.25c0-5,1.57-8,4.88-8,3.79,0,4.72,3.41,4.72,7.51,0,.55,0,1.28,0,1.55Zm3.63-2.62c0-1.53-.14-3.47-1.74-3.47s-1.84,2.34-1.84,3.47Z"/><path class="cls-2" d="M333.24,153.07c0-2.58,0-4.2,0-5.32h2.87a25.76,25.76,0,0,1,.08,2.59,3.42,3.42,0,0,1,3.42-2.85v4.06c-2.14-.06-3.34.69-3.34,3.66v8.24h-3Z"/><path class="cls-2" d="M349.48,160c0,.77,0,2.71.1,3.42h-2.74a11.47,11.47,0,0,1-.13-1.46,3,3,0,0,1-2.94,1.73c-2.51,0-3.48-2.4-3.48-4.65,0-3.22,1.84-5.16,5.15-5.16.44,0,.77,0,1.07,0v-1.71c0-.92-.1-2-1.4-2s-1.4,1-1.48,2h-2.86c.06-2.31,1-4.78,4.45-4.78,2.8,0,4.26,1.53,4.26,4.53Zm-2.9-3.47a4.91,4.91,0,0,0-1-.06,2,2,0,0,0-2.34,2.24c0,.95.39,2,1.5,2,1.54,0,1.82-1.39,1.82-3.72Z"/><path class="cls-2" d="M360.83,158.13c-.05,1.26-.28,5.59-4.59,5.59-3.75,0-4.67-3.6-4.67-8.25,0-4.16,1.14-8,4.82-8,4.28,0,4.42,4.44,4.44,5.39h-3c0-.61-.08-2.4-1.42-2.4s-1.76,1.79-1.76,5,.41,5.23,1.72,5.23,1.51-1.7,1.59-2.59Z"/><path class="cls-2" d="M361.8,147.75h1.71v-3.92h3v3.92h2v3h-2v8.59c0,.91.14,1.43,1.08,1.43a2.88,2.88,0,0,0,.74-.06v2.66a4.47,4.47,0,0,1-1.84.32c-2.08,0-3-.93-3-3.75v-9.19H361.8Z"/><path class="cls-2" d="M370.16,147.75h3v15.7h-3Zm0-5.84h3v3.58h-3Z"/><path class="cls-2" d="M377.85,147.75c.82,4.46,1.69,9.3,2,11.92h0c.23-2.41,1.33-7.41,2.12-11.92h3l-3.66,15.7h-3.25l-3.46-15.7Z"/><path class="cls-2" d="M395.54,155.47c0,5.69-1.74,8.28-4.94,8.28s-4.87-2.47-4.87-8.2c0-5.56,1.95-8.07,5-8.07S395.54,150.21,395.54,155.47Zm-6.76.06c0,3.37.47,5.19,1.9,5.19s1.82-1.8,1.82-5.15-.48-5-1.84-5S388.78,152.16,388.78,155.53Z"/><text class="cls-3" transform="translate(468.87 164.84) rotate(-90) scale(1 1.05)">By 416 Producciones S.A.S</text></svg>