<?xml version="1.0" encoding="utf-8"?>
<!-- Generator: Adobe Illustrator 26.0.0, SVG Export Plug-In . SVG Version: 6.00 Build 0)  -->
<svg version="1.1" id="Capa_1" xmlns="http://www.w3.org/2000/svg" xmlns:xlink="http://www.w3.org/1999/xlink" x="0px" y="0px"
	 viewBox="0 0 176 51" style="enable-background:new 0 0 176 51;" xml:space="preserve">
<style type="text/css">
	.st0{fill:#FFFFFF;}
</style>
<path class="st0" d="M45,34l-2.3-16c-0.6-4.1-4.1-7.1-8.2-7.1H15.6c-4.1,0-7.7,3-8.2,7.1L5,34c-0.5,3.2,2,6.1,5.2,6.1
	c1.4,0,2.7-0.6,3.7-1.6l4.7-4.7h12.5l4.7,4.7c1,1,2.4,1.6,3.7,1.6C42.9,40.1,45.4,37.2,45,34z M22.9,23.4h-4.2v4.2h-2.1v-4.2h-4.2
	v-2.1h4.2v-4.2h2.1v4.2h4.2V23.4z M31.2,21.3c-1.1,0-2.1-0.9-2.1-2.1s0.9-2.1,2.1-2.1c1.1,0,2.1,0.9,2.1,2.1S32.4,21.3,31.2,21.3z
	 M35.4,27.6c-1.1,0-2.1-0.9-2.1-2.1s0.9-2.1,2.1-2.1c1.1,0,2.1,0.9,2.1,2.1S36.6,27.6,35.4,27.6z"/>
<path class="st0" d="M128.1,32.5c-1.4,1.4-3.1,2.1-4.9,2.1c-1.2,0-2.3-0.2-3.3-0.7c-1-0.5-1.9-1.1-2.7-1.9c-0.8-0.8-1.3-1.8-1.8-2.9
	c-0.4-1.1-0.7-2.3-0.7-3.6c0-1.2,0.2-2.4,0.7-3.4c0.4-1.1,1.1-2,1.8-2.8c0.8-0.8,1.7-1.5,2.8-1.9c1.1-0.5,2.2-0.7,3.4-0.7
	c1.7,0,3.1,0.4,4.3,1c1.2,0.7,2.1,1.6,2.7,2.8l-2.6,1.9c-0.4-0.9-1.1-1.6-1.9-2c-0.8-0.5-1.7-0.7-2.6-0.7c-0.8,0-1.4,0.2-2.1,0.5
	c-0.6,0.3-1.2,0.8-1.6,1.3c-0.4,0.5-0.8,1.2-1,1.9c-0.2,0.7-0.3,1.5-0.3,2.3c0,0.8,0.1,1.6,0.4,2.4c0.3,0.7,0.6,1.3,1.1,1.9
	c0.5,0.5,1,1,1.7,1.3c0.7,0.3,1.3,0.5,2.1,0.5c1.7,0,3.3-0.8,4.6-2.4v-1.2h-3.6v-2.5h6.4v9.1h-2.8V32.5z"/>
<path class="st0" d="M139.6,34.8c-1,0-2-0.2-2.8-0.5c-0.9-0.4-1.6-0.9-2.2-1.5c-0.6-0.6-1.1-1.3-1.4-2.1c-0.3-0.8-0.5-1.7-0.5-2.6
	c0-0.9,0.2-1.8,0.5-2.6c0.3-0.8,0.8-1.6,1.4-2.2c0.6-0.6,1.3-1.1,2.2-1.5c0.9-0.4,1.8-0.6,2.9-0.6c1.1,0,2,0.2,2.8,0.6
	c0.9,0.4,1.6,0.9,2.2,1.5c0.6,0.6,1.1,1.3,1.3,2.1c0.3,0.8,0.5,1.7,0.5,2.5c0,0.2,0,0.4,0,0.6c0,0.2,0,0.4-0.1,0.5h-10.1
	c0.1,0.5,0.2,1,0.4,1.4s0.5,0.7,0.8,1c0.3,0.3,0.7,0.5,1.1,0.7c0.4,0.1,0.8,0.2,1.2,0.2c0.7,0,1.3-0.2,1.9-0.5
	c0.6-0.3,1-0.8,1.2-1.3l2.9,0.8c-0.5,1-1.3,1.8-2.3,2.5C142.3,34.4,141.1,34.8,139.6,34.8z M143,26.9c-0.1-1-0.4-1.8-1.1-2.4
	c-0.6-0.6-1.4-0.9-2.3-0.9c-0.4,0-0.9,0.1-1.3,0.2c-0.4,0.1-0.7,0.4-1,0.6c-0.3,0.3-0.6,0.6-0.8,1c-0.2,0.4-0.3,0.8-0.3,1.3H143z"/>
<path class="st0" d="M154.6,34.8c-1.1,0-2-0.2-2.9-0.5c-0.9-0.4-1.6-0.9-2.2-1.5c-0.6-0.6-1.1-1.3-1.4-2.1c-0.3-0.8-0.5-1.7-0.5-2.6
	c0-0.9,0.2-1.8,0.5-2.6c0.3-0.8,0.8-1.6,1.4-2.2c0.6-0.6,1.3-1.1,2.2-1.5c0.9-0.4,1.8-0.6,2.9-0.6c1.1,0,2,0.2,2.9,0.6
	c0.8,0.4,1.6,0.9,2.1,1.5c0.6,0.6,1.1,1.3,1.4,2.1c0.3,0.8,0.5,1.7,0.5,2.5c0,0.2,0,0.4,0,0.6c0,0.2,0,0.4-0.1,0.5h-10.1
	c0.1,0.5,0.2,1,0.4,1.4s0.5,0.7,0.8,1c0.3,0.3,0.7,0.5,1.1,0.7c0.4,0.1,0.8,0.2,1.2,0.2c0.7,0,1.3-0.2,1.9-0.5
	c0.6-0.3,1-0.8,1.2-1.3l2.9,0.8c-0.5,1-1.3,1.8-2.3,2.5C157.3,34.4,156.1,34.8,154.6,34.8z M158,26.9c-0.1-1-0.4-1.8-1.1-2.4
	c-0.6-0.6-1.4-0.9-2.3-0.9c-0.4,0-0.9,0.1-1.3,0.2c-0.4,0.1-0.7,0.4-1,0.6c-0.3,0.3-0.5,0.6-0.8,1c-0.2,0.4-0.3,0.8-0.3,1.3H158z"/>
<path class="st0" d="M172.4,34.5l-3.8-5.7l-1.8,1.8v3.9h-3.3V16.2h3.3v11.1l5.2-5.9h3.6l-4.9,5.6l5.2,7.5H172.4z"/>
<path class="st0" d="M56.8,16.8h3l6.7,17.8H63l-1.7-4.4h-6.2l-1.6,4.4H50L56.8,16.8z M60.7,27.6l-2.4-7l-2.5,7H60.7z"/>
<path class="st0" d="M68.2,16.2h3.3v14c0,0.5,0.1,0.9,0.3,1.1c0.2,0.3,0.6,0.4,1,0.4c0.2,0,0.4,0,0.6-0.1c0.2-0.1,0.5-0.1,0.7-0.2
	l0.5,2.6c-0.5,0.2-1,0.4-1.6,0.5c-0.6,0.1-1.1,0.2-1.6,0.2c-1,0-1.9-0.3-2.4-0.8c-0.6-0.6-0.8-1.4-0.8-2.4V16.2z"/>
<path class="st0" d="M80.1,34.8c-1.3,0-2.4-0.4-3.1-1.3c-0.7-0.9-1-2.2-1-3.9v-8.2h3.3v7.5c0,2,0.7,3,2.2,3c0.7,0,1.3-0.2,1.9-0.6
	c0.6-0.4,1.1-1,1.5-1.8v-8.1h3.3v9.2c0,0.4,0.1,0.6,0.2,0.8c0.1,0.1,0.3,0.2,0.6,0.2v2.9c-0.3,0.1-0.6,0.1-0.8,0.1
	c-0.2,0-0.4,0-0.6,0c-0.6,0-1.1-0.1-1.5-0.4c-0.4-0.3-0.6-0.7-0.7-1.2l-0.1-1c-0.6,0.9-1.3,1.6-2.2,2C82.2,34.5,81.2,34.8,80.1,34.8
	z"/>
<path class="st0" d="M99.4,24.3c-1,0-1.9,0.2-2.7,0.6c-0.8,0.4-1.4,0.9-1.7,1.7v7.9h-3.3V21.4h3.1v2.8c0.2-0.5,0.5-0.9,0.8-1.2
	c0.3-0.4,0.7-0.7,1-1c0.4-0.3,0.7-0.5,1.1-0.6c0.4-0.2,0.8-0.2,1.1-0.2c0.2,0,0.3,0,0.4,0c0.1,0,0.2,0,0.3,0V24.3z"/>
<path class="st0" d="M104.7,34.8c-0.6,0-1.2-0.1-1.8-0.3c-0.5-0.2-1-0.5-1.4-0.9c-0.4-0.4-0.7-0.8-1-1.3c-0.2-0.5-0.3-1-0.3-1.6
	c0-0.6,0.1-1.2,0.4-1.7c0.3-0.5,0.7-1,1.1-1.4c0.5-0.4,1.1-0.6,1.8-0.8c0.7-0.2,1.4-0.3,2.2-0.3c0.6,0,1.2,0,1.7,0.1
	c0.6,0.1,1.1,0.2,1.5,0.4v-0.8c0-0.9-0.2-1.5-0.7-2c-0.5-0.5-1.2-0.7-2.2-0.7c-0.7,0-1.4,0.1-2.1,0.4c-0.7,0.2-1.3,0.6-2,1.1l-1-2.1
	c1.7-1.1,3.5-1.7,5.4-1.7c1.9,0,3.3,0.5,4.4,1.4c1.1,0.9,1.6,2.2,1.6,4v4.1c0,0.4,0.1,0.6,0.2,0.8c0.1,0.1,0.3,0.2,0.6,0.2v2.9
	c-0.6,0.1-1.1,0.2-1.5,0.2c-0.6,0-1.1-0.1-1.5-0.4c-0.3-0.3-0.5-0.7-0.6-1.1l-0.1-0.7c-0.6,0.8-1.3,1.3-2.1,1.8
	C106.5,34.5,105.6,34.8,104.7,34.8z M105.6,32.3c0.6,0,1.1-0.1,1.6-0.3c0.5-0.2,0.9-0.5,1.2-0.8c0.4-0.3,0.5-0.6,0.5-1v-1.5
	c-0.4-0.1-0.8-0.3-1.3-0.4c-0.5-0.1-0.9-0.1-1.3-0.1c-0.9,0-1.6,0.2-2.1,0.6c-0.6,0.4-0.8,0.9-0.8,1.5c0,0.6,0.2,1,0.7,1.4
	C104.4,32.1,105,32.3,105.6,32.3z"/>
</svg>
