<svg id="Object" xmlns="http://www.w3.org/2000/svg" viewBox="0 0 483.39 130.81"><defs><style>.cls-1{fill:#fff;}</style></defs><path class="cls-1" d="M24.32,13.29H41.16V27.6H24.32Zm0,20.9H41v58H24.32Z"/><path class="cls-1" d="M114.45,29.05H88.65V92.2H71V29.05H45.16V13.29h69.29Z"/><path class="cls-1" d="M151.57,33.18a38.62,38.62,0,0,1,4.16,1L153.2,48.72a16,16,0,0,0-6.84-1.34A14,14,0,0,0,134.67,53a21.93,21.93,0,0,0-2,3.24v36H115.93v-58h13.9l1.15,7.6A29.9,29.9,0,0,1,133.09,39a18.39,18.39,0,0,1,14.22-6.26A23.88,23.88,0,0,1,151.57,33.18Z"/><path class="cls-1" d="M211.64,51a70.81,70.81,0,0,1,.63,10.45V92.2H198l-.63-5a24.6,24.6,0,0,1-8.53,4.92,29.38,29.38,0,0,1-10,1.9q-9.69,0-15.64-5.2t-6-14.69q0-10.51,8.16-14.93t20.06-4.41a79.18,79.18,0,0,1,10.74.78v-.67q-.1-4.92-3.21-7t-9.11-2.13A40.37,40.37,0,0,0,173.58,47a52.39,52.39,0,0,0-8.9,3.13l-4.53-11.73a45.31,45.31,0,0,1,11.79-4.7,55.24,55.24,0,0,1,13.48-1.67,36.66,36.66,0,0,1,14.74,2.79,17.91,17.91,0,0,1,9.38,9A24.92,24.92,0,0,1,211.64,51ZM189.63,79a17.73,17.73,0,0,0,6.53-3.3v-9a58.89,58.89,0,0,0-9.47-.67,23.5,23.5,0,0,0-9.53,1.67,5.89,5.89,0,0,0-3.74,5.81q0,6.6,8.84,6.6A27.12,27.12,0,0,0,189.63,79Z"/><path class="cls-1" d="M220.91,13.29h16.85V27.6H220.91Zm0,20.9h16.63v58H220.91Z"/><path class="cls-1" d="M303.57,56.88V92.2H286.72V60.57q0-6.6-2.37-10.23t-8-3.63q-6.52,0-13.16,7.6V92.2H246.49v-58h14.64l.84,7q9.48-9.16,20.75-9.16A22.29,22.29,0,0,1,291,33.58,15.87,15.87,0,0,1,297.35,38Q303.58,44.59,303.57,56.88Z"/><path class="cls-1" d="M312.41,13.29h16.85V27.6H312.41Zm0,20.9h16.64v58H312.41Z"/><path class="cls-1" d="M395.07,56.88V92.2H378.22V60.57q0-6.6-2.37-10.23t-8-3.63q-6.52,0-13.16,7.6V92.2H338v-58h14.64l.84,7q9.48-9.16,20.74-9.16a22.38,22.38,0,0,1,8.27,1.51A16,16,0,0,1,388.86,38Q395.07,44.59,395.07,56.88Z"/><path class="cls-1" d="M460.88,34.19V88.4a32.26,32.26,0,0,1-4,16.43,26.42,26.42,0,0,1-11.21,10.57A36.65,36.65,0,0,1,429,119a50.27,50.27,0,0,1-12.64-1.73,48.73,48.73,0,0,1-11.9-4.75l4.21-13.08a49.6,49.6,0,0,0,9.38,3.46,39.45,39.45,0,0,0,10.32,1.46q8.83,0,12.63-4t3.79-11.35v-2.9A23.08,23.08,0,0,1,436.93,92a22.53,22.53,0,0,1-9.32,2,24.61,24.61,0,0,1-14.27-4.08,25.8,25.8,0,0,1-9.06-11.06,38.31,38.31,0,0,1-3.1-15.71,39.78,39.78,0,0,1,3.05-15.82,25.35,25.35,0,0,1,9-11.17,24.39,24.39,0,0,1,14.16-4.08,21.78,21.78,0,0,1,10.74,2.74,24.66,24.66,0,0,1,8.42,7.76l.85-8.38ZM441,74.82q3.48-4.18,3.48-11.68t-3.53-11.79Q437.41,47,431,47t-10,4.31q-3.47,4.31-3.47,11.79T421,74.82Q424.45,79,431,79T441,74.82Z"/><path class="cls-1" d="M23.8,97.12h5.13c2.82,0,4.94,2,4.94,6.1s-1.92,6.07-5.17,6.07H26.86v8.34H23.8Zm3.06,9.22h1.49c1.7,0,2.45-1,2.45-3.17s-.88-3.08-2.28-3.08H26.86Z"/><path class="cls-1" d="M35.62,117.63V96.09h3v21.54Z"/><path class="cls-1" d="M49.71,114.21c0,.78.06,2.71.1,3.42H47.08a9.89,9.89,0,0,1-.13-1.46A3,3,0,0,1,44,117.9c-2.51,0-3.48-2.4-3.48-4.65,0-3.21,1.83-5.16,5.15-5.16a8.38,8.38,0,0,1,1.07,0v-1.72c0-.91-.1-2-1.41-2s-1.39,1-1.47,2H41c.05-2.31,1-4.78,4.45-4.78,2.8,0,4.25,1.53,4.25,4.52Zm-2.89-3.46a4.91,4.91,0,0,0-1-.06,2,2,0,0,0-2.34,2.23c0,1,.38,2,1.5,2,1.54,0,1.82-1.38,1.82-3.71Z"/><path class="cls-1" d="M51,101.94h1.71V98h3v3.92h2v3h-2v8.59c0,.91.14,1.43,1.08,1.43a2.86,2.86,0,0,0,.74-.07v2.67a4.45,4.45,0,0,1-1.84.31c-2.09,0-3-.92-3-3.74v-9.19H51Z"/><path class="cls-1" d="M68,114.21c0,.78,0,2.71.1,3.42H65.33a11.62,11.62,0,0,1-.12-1.46,3,3,0,0,1-2.95,1.73c-2.51,0-3.47-2.4-3.47-4.65,0-3.21,1.83-5.16,5.15-5.16a8.14,8.14,0,0,1,1.06,0v-1.72c0-.91-.09-2-1.4-2s-1.4,1-1.47,2H59.27c0-2.31.95-4.78,4.44-4.78,2.81,0,4.26,1.53,4.26,4.52Zm-2.9-3.46a4.75,4.75,0,0,0-1-.06,2,2,0,0,0-2.34,2.23c0,1,.38,2,1.5,2,1.54,0,1.81-1.38,1.81-3.71Z"/><path class="cls-1" d="M70.91,117.63V104.91H69.39v-3h1.52v-1.53c0-2.62,1-4.52,3.58-4.52a4.53,4.53,0,0,1,1.24.18v3A2.83,2.83,0,0,0,75,99c-.87,0-1.1.59-1.1,1.66v1.28h1.85v3H73.92v12.72Z"/><path class="cls-1" d="M86.25,109.65c0,5.7-1.74,8.28-5,8.28s-4.86-2.46-4.86-8.19c0-5.56,1.94-8.07,5-8.07S86.25,104.4,86.25,109.65Zm-6.77.06c0,3.37.47,5.2,1.91,5.2s1.82-1.81,1.82-5.15-.48-5-1.84-5S79.48,106.35,79.48,109.71Z"/><path class="cls-1" d="M88.3,107.26c0-2.58,0-4.2,0-5.32h2.87a25.47,25.47,0,0,1,.08,2.58,3.44,3.44,0,0,1,3.42-2.85v4.06c-2.14-.06-3.34.7-3.34,3.67v8.23h-3Z"/><path class="cls-1" d="M96.14,106.65c0-3.1,0-4,0-4.71H99a13.63,13.63,0,0,1,.1,1.6,3,3,0,0,1,2.87-1.87,2.59,2.59,0,0,1,2.65,2.13,3.4,3.4,0,0,1,3.2-2.13c1.86,0,3.31,1.13,3.31,4.7v11.26h-3V106.91c0-1.25-.34-2.16-1.38-2.16-1.23,0-1.62,1.11-1.62,3v9.83h-3V107c0-1.44-.41-2.2-1.38-2.2-1.21,0-1.65,1-1.65,3.11v9.74h-3Z"/><path class="cls-1" d="M122.16,114.21c0,.78.06,2.71.1,3.42h-2.73a9.89,9.89,0,0,1-.13-1.46,3,3,0,0,1-2.94,1.73c-2.51,0-3.48-2.4-3.48-4.65,0-3.21,1.84-5.16,5.15-5.16a8.38,8.38,0,0,1,1.07,0v-1.72c0-.91-.1-2-1.41-2s-1.39,1-1.47,2h-2.86c.05-2.31,1-4.78,4.45-4.78,2.8,0,4.25,1.53,4.25,4.52Zm-2.89-3.46a4.91,4.91,0,0,0-1-.06,2,2,0,0,0-2.34,2.23c0,1,.39,2,1.5,2,1.54,0,1.82-1.38,1.82-3.71Z"/><path class="cls-1" d="M138.64,96.09v17.18c0,1.86,0,3.45,0,4.36h-2.9c0-.39-.09-1.2-.09-1.67a2.71,2.71,0,0,1-2.9,1.94c-2.75,0-3.85-3-3.85-8.24,0-4.82,1.31-8,4.35-8a2.3,2.3,0,0,1,2.35,1.23V96.09ZM132,109.71c0,3.64.54,5.14,1.82,5.14,1.56,0,1.9-1.47,1.9-5.25,0-3.63-.24-4.85-1.77-4.85C132.71,104.75,132,105.86,132,109.71Z"/><path class="cls-1" d="M143.66,110.73c0,2,.21,4.2,1.88,4.2,1.5,0,1.69-1.53,1.74-2.06h2.89c0,.49-.34,5.06-4.68,5.06s-4.82-4.27-4.82-8.24c0-5,1.57-8,4.88-8,3.79,0,4.72,3.41,4.72,7.5,0,.55,0,1.29-.05,1.56Zm3.64-2.62c0-1.53-.15-3.47-1.75-3.47s-1.83,2.33-1.84,3.47Z"/><path class="cls-1" d="M165.65,108.51h-5.48v6h6.15l-.38,3.16h-8.79V97.12h8.75v3.21h-5.73v5h5.48Z"/><path class="cls-1" d="M167.91,106.82c0-3.23,0-4.06,0-4.88h2.9a14.61,14.61,0,0,1,.09,1.63,3,3,0,0,1,2.89-1.93c2.13,0,3.34,1.62,3.34,4.8v11.19h-3V107.26c0-1.56-.26-2.51-1.47-2.51s-1.69.77-1.69,3.16v9.72h-3Z"/><path class="cls-1" d="M178.37,101.94h1.71V98h3v3.92h2v3h-2v8.59c0,.91.14,1.43,1.08,1.43a2.86,2.86,0,0,0,.74-.07v2.67a4.45,4.45,0,0,1-1.84.31c-2.09,0-3-.92-3-3.74v-9.19h-1.71Z"/><path class="cls-1" d="M186.7,107.26c0-2.58,0-4.2,0-5.32h2.88a25.47,25.47,0,0,1,.08,2.58,3.44,3.44,0,0,1,3.42-2.85v4.06c-2.14-.06-3.34.7-3.34,3.67v8.23h-3Z"/><path class="cls-1" d="M197,110.73c0,2,.21,4.2,1.88,4.2,1.5,0,1.69-1.53,1.74-2.06h2.89c-.05.49-.34,5.06-4.68,5.06s-4.82-4.27-4.82-8.24c0-5,1.57-8,4.88-8,3.79,0,4.72,3.41,4.72,7.5,0,.55,0,1.29,0,1.56Zm3.64-2.62c0-1.53-.15-3.47-1.75-3.47s-1.83,2.33-1.84,3.47Z"/><path class="cls-1" d="M205.66,106.82c0-3.23,0-4.06,0-4.88h2.9a14.61,14.61,0,0,1,.09,1.63,3,3,0,0,1,2.89-1.93c2.13,0,3.34,1.62,3.34,4.8v11.19h-3V107.26c0-1.56-.26-2.51-1.47-2.51s-1.69.77-1.69,3.16v9.72h-3Z"/><path class="cls-1" d="M225.91,114.21c0,.78.05,2.71.1,3.42h-2.74a11.62,11.62,0,0,1-.12-1.46,3,3,0,0,1-3,1.73c-2.51,0-3.47-2.4-3.47-4.65,0-3.21,1.83-5.16,5.14-5.16a8.3,8.3,0,0,1,1.07,0v-1.72c0-.91-.09-2-1.4-2s-1.4,1-1.47,2h-2.86c0-2.31.95-4.78,4.44-4.78,2.81,0,4.26,1.53,4.26,4.52Zm-2.9-3.46a4.75,4.75,0,0,0-1-.06,2,2,0,0,0-2.34,2.23c0,1,.38,2,1.5,2,1.53,0,1.81-1.38,1.81-3.71Z"/><path class="cls-1" d="M228.61,106.65c0-3.1,0-4,0-4.71h2.88a13.63,13.63,0,0,1,.1,1.6,3,3,0,0,1,2.87-1.87,2.59,2.59,0,0,1,2.65,2.13,3.38,3.38,0,0,1,3.2-2.13c1.86,0,3.31,1.13,3.31,4.7v11.26h-3V106.91c0-1.25-.34-2.16-1.38-2.16-1.23,0-1.62,1.11-1.62,3v9.83h-3V107c0-1.44-.41-2.2-1.38-2.2-1.21,0-1.65,1-1.65,3.11v9.74h-3Z"/><path class="cls-1" d="M246.24,101.94h3v15.69h-3Zm0-5.85h3v3.58h-3Z"/><path class="cls-1" d="M254.34,110.73c0,2,.21,4.2,1.88,4.2,1.5,0,1.69-1.53,1.74-2.06h2.89c-.05.49-.34,5.06-4.68,5.06s-4.82-4.27-4.82-8.24c0-5,1.57-8,4.88-8,3.79,0,4.72,3.41,4.72,7.5,0,.55,0,1.29-.05,1.56Zm3.64-2.62c0-1.53-.15-3.47-1.75-3.47s-1.83,2.33-1.84,3.47Z"/><path class="cls-1" d="M263,106.82c0-3.23,0-4.06,0-4.88h2.9a14.61,14.61,0,0,1,.09,1.63,3,3,0,0,1,2.89-1.93c2.13,0,3.34,1.62,3.34,4.8v11.19h-3V107.26c0-1.56-.26-2.51-1.47-2.51s-1.69.77-1.69,3.16v9.72h-3Z"/><path class="cls-1" d="M273.44,101.94h1.71V98h3v3.92h2v3h-2v8.59c0,.91.14,1.43,1.08,1.43a2.86,2.86,0,0,0,.74-.07v2.67a4.45,4.45,0,0,1-1.84.31c-2.09,0-3-.92-3-3.74v-9.19h-1.71Z"/><path class="cls-1" d="M291,109.65c0,5.7-1.74,8.28-5,8.28s-4.86-2.46-4.86-8.19c0-5.56,1.94-8.07,5-8.07S291,104.4,291,109.65Zm-6.77.06c0,3.37.47,5.2,1.91,5.2s1.81-1.81,1.81-5.15-.47-5-1.84-5S284.2,106.35,284.2,109.71Z"/><path class="cls-1" d="M300.9,97.12v20.51h-3.06V97.12Z"/><path class="cls-1" d="M303.43,106.82c0-3.23,0-4.06,0-4.88h2.9c0,.39.09,1,.09,1.63a3,3,0,0,1,2.89-1.93c2.13,0,3.34,1.62,3.34,4.8v11.19h-3V107.26c0-1.56-.26-2.51-1.47-2.51s-1.69.77-1.69,3.16v9.72h-3Z"/><path class="cls-1" d="M313.89,101.94h1.71V98h3v3.92h2v3h-2v8.59c0,.91.14,1.43,1.08,1.43a2.86,2.86,0,0,0,.74-.07v2.67a4.45,4.45,0,0,1-1.84.31c-2.09,0-3-.92-3-3.74v-9.19h-1.71Z"/><path class="cls-1" d="M324.6,110.73c0,2,.2,4.2,1.87,4.2,1.5,0,1.7-1.53,1.75-2.06h2.88c-.05.49-.34,5.06-4.67,5.06s-4.83-4.27-4.83-8.24c0-5,1.58-8,4.89-8,3.79,0,4.71,3.41,4.71,7.5,0,.55,0,1.29,0,1.56Zm3.63-2.62c0-1.53-.15-3.47-1.75-3.47s-1.83,2.33-1.83,3.47Z"/><path class="cls-1" d="M333.24,107.26c0-2.58,0-4.2,0-5.32h2.88c0,.27.07.92.07,2.58a3.46,3.46,0,0,1,3.43-2.85v4.06c-2.14-.06-3.34.7-3.34,3.67v8.23h-3Z"/><path class="cls-1" d="M349.47,114.21c0,.78.06,2.71.11,3.42h-2.74a9.89,9.89,0,0,1-.13-1.46,3,3,0,0,1-2.94,1.73c-2.51,0-3.48-2.4-3.48-4.65,0-3.21,1.84-5.16,5.15-5.16a8.38,8.38,0,0,1,1.07,0v-1.72c0-.91-.1-2-1.41-2s-1.39,1-1.47,2h-2.86c.05-2.31,1-4.78,4.45-4.78,2.8,0,4.25,1.53,4.25,4.52Zm-2.89-3.46a4.91,4.91,0,0,0-1-.06,2,2,0,0,0-2.34,2.23c0,1,.39,2,1.5,2,1.54,0,1.82-1.38,1.82-3.71Z"/><path class="cls-1" d="M360.83,112.32c-.05,1.26-.29,5.58-4.6,5.58-3.74,0-4.67-3.59-4.67-8.25,0-4.16,1.15-8,4.83-8,4.28,0,4.42,4.45,4.44,5.4h-3c0-.61-.08-2.4-1.42-2.4s-1.76,1.78-1.76,5,.41,5.24,1.72,5.24,1.51-1.7,1.59-2.59Z"/><path class="cls-1" d="M361.8,101.94h1.71V98h3v3.92h2v3h-2v8.59c0,.91.14,1.43,1.08,1.43a2.86,2.86,0,0,0,.74-.07v2.67a4.45,4.45,0,0,1-1.84.31c-2.09,0-3-.92-3-3.74v-9.19H361.8Z"/><path class="cls-1" d="M370.16,101.94h3v15.69h-3Zm0-5.85h3v3.58h-3Z"/><path class="cls-1" d="M377.85,101.94c.81,4.45,1.69,9.3,2,11.92h0c.23-2.41,1.33-7.41,2.12-11.92h3l-3.66,15.69h-3.25l-3.46-15.69Z"/><path class="cls-1" d="M395.54,109.65c0,5.7-1.74,8.28-4.94,8.28s-4.87-2.46-4.87-8.19c0-5.56,1.95-8.07,5-8.07S395.54,104.4,395.54,109.65Zm-6.76.06c0,3.37.46,5.2,1.9,5.2s1.82-1.81,1.82-5.15-.48-5-1.84-5S388.78,106.35,388.78,109.71Z"/><path class="cls-1" d="M467.29,114.86a1.35,1.35,0,0,1,1.19.63,2.89,2.89,0,0,1,.41,1.67c0,.2,0,.58,0,1.16-.82,0-1.73,0-2.72,0s-1.75,0-2.46,0v-.46c0-.08,0-.26,0-.53s0-.46,0-.58c0-1,.38-1.58,1.14-1.58a1.14,1.14,0,0,1,1.18.75h0A1.18,1.18,0,0,1,467.29,114.86Zm-2.28,1c-.55,0-.82.35-.82,1.06a4.88,4.88,0,0,0,.06.85c.19,0,.73,0,1.61,0,0-.12,0-.26,0-.4a2.44,2.44,0,0,0-.18-1.09A.7.7,0,0,0,465,115.81Zm2.35-.31c-.65,0-1,.55-1,1.65,0,.21,0,.38,0,.54.71,0,1.34,0,1.9,0a2.72,2.72,0,0,0,0-.51,2.46,2.46,0,0,0-.26-1.3A.82.82,0,0,0,467.36,115.5Z"/><path class="cls-1" d="M465.09,111.05a7.61,7.61,0,0,1,1.62.57,18.81,18.81,0,0,0,2.21.82,3.89,3.89,0,0,1,1.31.48,1.29,1.29,0,0,1,.39,1.08l-.55,0a1,1,0,0,0-.34-.79,1.25,1.25,0,0,0-.85-.31,7.8,7.8,0,0,0-2.09.7c-1.11.46-1.67.69-1.7.69v-.78a13.74,13.74,0,0,0,1.45-.48,7.26,7.26,0,0,1,1.65-.47v0a8.26,8.26,0,0,1-1.5-.41,7.64,7.64,0,0,0-1.6-.4Z"/><path class="cls-1" d="M467.63,105.41l.63.08v.66c.49,0,1.13,0,1.92-.05v.65l-1.92,0v2.14l-.5.08a12,12,0,0,1-1.57-1c-1-.68-1.48-1-1.52-1v-.79c.6,0,1.6.05,3,.05A6.46,6.46,0,0,0,467.63,105.41Zm-2.39,1.27v0a7.31,7.31,0,0,1,1.23.82,12.24,12.24,0,0,0,1.2.81h0q0-.66,0-1.62C466.85,106.72,466,106.7,465.24,106.68Z"/><path class="cls-1" d="M468.87,103.12v.65c-.56,0-1.14,0-1.74,0s-1.21,0-1.54,0l.45.86-.35.18-1.05-1.36v-.33c.86,0,1.68,0,2.49,0C467.69,103.16,468.27,103.15,468.87,103.12Z"/><path class="cls-1" d="M467.26,98.54a1.86,1.86,0,0,1,1.25.45,1.63,1.63,0,0,1,0,2.43,2.38,2.38,0,0,1-1.64.49c-2.09,0-3.2-.88-3.31-2.65l.46-.05a2.28,2.28,0,0,0,.62,1.48,2.59,2.59,0,0,0,1.55.56v0a1.36,1.36,0,0,1-.53-1.21,1.29,1.29,0,0,1,.49-1.07A1.8,1.8,0,0,1,467.26,98.54Zm.12.66a1.36,1.36,0,0,0-.88.3,1.05,1.05,0,0,0-.36.87,1,1,0,0,0,.46.88,2.85,2.85,0,0,0,1.47-.29.86.86,0,0,0,.46-.74.92.92,0,0,0-.34-.75A1.28,1.28,0,0,0,467.38,99.2Z"/><path class="cls-1" d="M465,92.37a1.53,1.53,0,0,1,1.35.66,3,3,0,0,1,.45,1.76,1.77,1.77,0,0,1,0,.24q.87,0,2.1-.06v.72c-.75,0-1.66,0-2.72,0-.91,0-1.73,0-2.46,0v-.54c0-.05,0-.22,0-.49s0-.51,0-.7A1.8,1.8,0,0,1,464,92.8,1.15,1.15,0,0,1,465,92.37Zm.23.63c-.68,0-1,.45-1,1.33a5,5,0,0,0,.06.73c.43,0,1.1,0,2,0a3.22,3.22,0,0,0,0-.33C466.27,93.57,465.92,93,465.21,93Z"/><path class="cls-1" d="M465.09,89.34l.63.17a1.44,1.44,0,0,0-.12.55.89.89,0,0,0,.71.92l2.56,0v.67c-.84,0-1.49-.06-2-.06a8.73,8.73,0,0,0-1.8.17l-.1-.66a4.13,4.13,0,0,1,.58-.07v0a1.15,1.15,0,0,1-.63-1A2.43,2.43,0,0,1,465.09,89.34Z"/><path class="cls-1" d="M466.86,85.42a2.19,2.19,0,0,1,1.59.56,1.76,1.76,0,0,1,.57,1.31,1.69,1.69,0,0,1-.5,1.21,2,2,0,0,1-1.43.5,2.23,2.23,0,0,1-1.6-.56,1.77,1.77,0,0,1-.57-1.31,1.65,1.65,0,0,1,.51-1.21A2,2,0,0,1,466.86,85.42Zm.14.66a2,2,0,0,0-1.1.29,1,1,0,0,0,0,1.69,1.93,1.93,0,0,0,1.06.29,2,2,0,0,0,1.1-.3.94.94,0,0,0,.48-.85.92.92,0,0,0-.46-.83A1.88,1.88,0,0,0,467,86.08Z"/><path class="cls-1" d="M468.86,81.28l0,.57a2,2,0,0,1-.36,0v0A1.49,1.49,0,0,1,469,83.1a1.37,1.37,0,0,1-.54,1.14,2.08,2.08,0,0,1-1.33.43,2.49,2.49,0,0,1-1.51-.47,1.58,1.58,0,0,1-.64-1.33,1.23,1.23,0,0,1,.26-.88v0c-.65,0-1.3,0-1.93.05l0-.72c.67,0,1.56.07,2.64.07S468,81.34,468.86,81.28Zm-.78.61c-.82,0-1.62,0-2.38.07a1.1,1.1,0,0,0-.27.76,1.09,1.09,0,0,0,.45,1A1.9,1.9,0,0,0,467,84a1.67,1.67,0,0,0,1-.3,1,1,0,0,0,.41-.84A1.19,1.19,0,0,0,468.08,81.89Z"/><path class="cls-1" d="M468.86,77.09l0,.59a2,2,0,0,1-.37,0v0A1.75,1.75,0,0,1,469,79a1.18,1.18,0,0,1-.34,1,2.07,2.07,0,0,1-1.33.3h-.81c-.39,0-.85,0-1.38.07l0-.71c.52,0,.95,0,1.32,0a5.53,5.53,0,0,0,1.63-.15.68.68,0,0,0,.38-.69,1.54,1.54,0,0,0-.32-1c-1.47,0-2.47,0-3,0l0-.68q.75,0,2.07,0A16.44,16.44,0,0,0,468.86,77.09Z"/><path class="cls-1" d="M468.26,73.38l.53,0a1.58,1.58,0,0,1,.18.82,1.93,1.93,0,0,1-.56,1.5,2,2,0,0,1-1.37.51,2.15,2.15,0,0,1-1.47-.54,1.86,1.86,0,0,1-.61-1.44,2.2,2.2,0,0,1,.1-.74l.62.1a2.32,2.32,0,0,0-.15.81,1.06,1.06,0,0,0,.39.86,1.51,1.51,0,0,0,1,.31,1.59,1.59,0,0,0,1.08-.37,1.39,1.39,0,0,0,.43-1.08A3,3,0,0,0,468.26,73.38Z"/><path class="cls-1" d="M468.26,69.88l.53,0a1.65,1.65,0,0,1,.18.83,1.9,1.9,0,0,1-.56,1.49,2,2,0,0,1-1.37.52,2.15,2.15,0,0,1-1.47-.54,1.88,1.88,0,0,1-.61-1.44,2.2,2.2,0,0,1,.1-.74l.62.1a2.32,2.32,0,0,0-.15.81,1.06,1.06,0,0,0,.39.86,1.51,1.51,0,0,0,1,.31,1.55,1.55,0,0,0,1.08-.38,1.36,1.36,0,0,0,.43-1.07A2.88,2.88,0,0,0,468.26,69.88Z"/><path class="cls-1" d="M463.9,68.28a.54.54,0,0,1,.35.13.43.43,0,0,1,.15.35.35.35,0,0,1-.13.3.47.47,0,0,1-.31.11.51.51,0,0,1-.35-.13.47.47,0,0,1-.14-.36.35.35,0,0,1,.13-.29A.44.44,0,0,1,463.9,68.28Zm5,.16v.69c-.53,0-1.14-.06-1.82-.06a11.58,11.58,0,0,0-1.93.14l-.1-.76c.55,0,1.23,0,2,0C467.69,68.5,468.29,68.48,468.87,68.44Z"/><path class="cls-1" d="M466.86,64a2.19,2.19,0,0,1,1.59.56,1.77,1.77,0,0,1,.57,1.31,1.68,1.68,0,0,1-.5,1.21,1.92,1.92,0,0,1-1.43.5,2.22,2.22,0,0,1-1.6-.55,1.8,1.8,0,0,1-.57-1.32,1.63,1.63,0,0,1,.51-1.2A1.94,1.94,0,0,1,466.86,64Zm.14.66a2,2,0,0,0-1.1.3.93.93,0,0,0-.48.84.94.94,0,0,0,.46.84,1.85,1.85,0,0,0,1.06.29,2.12,2.12,0,0,0,1.1-.29.94.94,0,0,0,.48-.85.92.92,0,0,0-.46-.84A2,2,0,0,0,467,64.64Z"/><path class="cls-1" d="M468.87,59.9v.69c-.7-.05-1.46-.08-2.28-.08a1.14,1.14,0,0,0-.84.24.92.92,0,0,0-.22.67,1.44,1.44,0,0,0,.4,1h2.94v.69c-.9-.05-1.56-.07-2-.07a9.64,9.64,0,0,0-1.8.17l-.1-.67.48-.07v0a1.73,1.73,0,0,1-.53-1.2,1.48,1.48,0,0,1,.29-1,1.31,1.31,0,0,1,1-.35h.6Z"/><path class="cls-1" d="M466.53,55.81H467l0,2.6a1.42,1.42,0,0,0,1-.42,1.38,1.38,0,0,0,.4-1,3.69,3.69,0,0,0-.15-1.07l.56.06A3,3,0,0,1,469,57a1.9,1.9,0,0,1-.56,1.5A1.94,1.94,0,0,1,467,59a2.46,2.46,0,0,1-1.5-.47,1.53,1.53,0,0,1-.62-1.27,1.36,1.36,0,0,1,.45-1.11A1.76,1.76,0,0,1,466.53,55.81Zm0,.63c-.74,0-1.11.3-1.11.89s.38,1,1.16,1.07Z"/><path class="cls-1" d="M467.79,52.53c.77,0,1.16.47,1.16,1.41a4.82,4.82,0,0,1-.13,1.17l-.58-.12a2.87,2.87,0,0,0,.19-1.07c0-.55-.16-.82-.49-.82a.46.46,0,0,0-.38.18,3,3,0,0,0-.31.61,3.28,3.28,0,0,1-.43.78,1,1,0,0,1-.74.36,1.07,1.07,0,0,1-.78-.33,1.39,1.39,0,0,1-.32-1,4.27,4.27,0,0,1,.11-1.05l.57.12a2.52,2.52,0,0,0-.17.95c0,.48.15.72.44.72a.44.44,0,0,0,.36-.16,2.41,2.41,0,0,0,.34-.63,2.87,2.87,0,0,1,.41-.76A1,1,0,0,1,467.79,52.53Z"/><path class="cls-1" d="M467.53,46.92q1.47,0,1.47,1.95a4.41,4.41,0,0,1-.17,1.26L468.2,50a3.4,3.4,0,0,0,.23-1.21c0-.86-.25-1.28-.76-1.28a.82.82,0,0,0-.66.33,5.16,5.16,0,0,0-.49.88,3.42,3.42,0,0,1-.59,1,1.35,1.35,0,0,1-1.89,0,1.7,1.7,0,0,1-.42-1.23,3.77,3.77,0,0,1,.13-1.23l.63.09a3.8,3.8,0,0,0-.19,1.22c0,.65.22,1,.68,1a.7.7,0,0,0,.55-.28,4.48,4.48,0,0,0,.42-.81,4,4,0,0,1,.62-1A1.4,1.4,0,0,1,467.53,46.92Z"/><path class="cls-1" d="M468.28,45.06a.64.64,0,0,1,.42.15.5.5,0,0,1,.18.41.43.43,0,0,1-.16.35.62.62,0,0,1-.77,0,.52.52,0,0,1-.18-.42.41.41,0,0,1,.15-.34A.56.56,0,0,1,468.28,45.06Z"/><path class="cls-1" d="M468.87,39.86v.8a9.51,9.51,0,0,0-1.68.47v2.19a9.05,9.05,0,0,0,1.68.47v.76c-.1,0-.95-.33-2.54-1a19.16,19.16,0,0,0-2.64-1v-.88a19.87,19.87,0,0,0,2.6-.93A20.27,20.27,0,0,1,468.87,39.86Zm-2.2,1.45c-1.55.59-2.38.89-2.48.89v0c.09,0,.91.3,2.48.92Z"/><path class="cls-1" d="M468.28,38.33a.64.64,0,0,1,.42.15.51.51,0,0,1,.18.41.43.43,0,0,1-.16.35.62.62,0,0,1-.77,0,.52.52,0,0,1-.18-.42.41.41,0,0,1,.15-.34A.56.56,0,0,1,468.28,38.33Z"/><path class="cls-1" d="M467.53,34.28c1,0,1.47.65,1.47,1.94a4.44,4.44,0,0,1-.17,1.27l-.63-.13a3.44,3.44,0,0,0,.23-1.21c0-.86-.25-1.29-.76-1.29a.81.81,0,0,0-.66.34,5,5,0,0,0-.49.87,3.67,3.67,0,0,1-.59,1,1.27,1.27,0,0,1-.94.38A1.24,1.24,0,0,1,464,37a1.7,1.7,0,0,1-.42-1.23,3.77,3.77,0,0,1,.13-1.23l.63.09a3.76,3.76,0,0,0-.19,1.22c0,.65.22,1,.68,1a.67.67,0,0,0,.55-.28,4.65,4.65,0,0,0,.42-.8,4,4,0,0,1,.62-1A1.37,1.37,0,0,1,467.53,34.28Z"/></svg>